<mxfile host="app.diagrams.net" modified="2024-04-18T20:43:53.575Z" agent="Mozilla/5.0 (Windows NT 10.0; Win64; x64) AppleWebKit/537.36 (KHTML, like Gecko) Chrome/123.0.0.0 Safari/537.36" etag="S_CbGV19aF8cfD1C-JTK" version="24.2.5" type="device">
  <diagram name="Page-1" id="Ftnawvo7iZOdKNYa3-pX">
    <mxGraphModel dx="1050" dy="1734" grid="1" gridSize="10" guides="1" tooltips="1" connect="1" arrows="1" fold="1" page="1" pageScale="1" pageWidth="827" pageHeight="1169" math="0" shadow="0">
      <root>
        <mxCell id="0" />
        <mxCell id="1" parent="0" />
        <mxCell id="U2BK-bpz5eqN0hKOcZLU-1" value="" style="ellipse;whiteSpace=wrap;html=1;shadow=1;" parent="1" vertex="1">
          <mxGeometry x="100" y="130" width="110" height="80" as="geometry" />
        </mxCell>
        <mxCell id="U2BK-bpz5eqN0hKOcZLU-3" value="&lt;span style=&quot;font-size: 17px;&quot;&gt;Ime&lt;/span&gt;" style="text;strokeColor=none;align=center;fillColor=none;html=1;verticalAlign=middle;whiteSpace=wrap;rounded=0;strokeWidth=5;" parent="1" vertex="1">
          <mxGeometry x="125" y="155" width="60" height="30" as="geometry" />
        </mxCell>
        <mxCell id="U2BK-bpz5eqN0hKOcZLU-4" value="" style="rounded=0;whiteSpace=wrap;html=1;" parent="1" vertex="1">
          <mxGeometry x="300" y="140" width="140" height="60" as="geometry" />
        </mxCell>
        <mxCell id="U2BK-bpz5eqN0hKOcZLU-5" value="&lt;span style=&quot;font-size: 20px;&quot;&gt;Klijent&lt;/span&gt;" style="text;strokeColor=none;align=center;fillColor=none;html=1;verticalAlign=middle;whiteSpace=wrap;rounded=0;" parent="1" vertex="1">
          <mxGeometry x="340" y="155" width="60" height="30" as="geometry" />
        </mxCell>
        <mxCell id="U2BK-bpz5eqN0hKOcZLU-8" value="" style="rhombus;whiteSpace=wrap;html=1;" parent="1" vertex="1">
          <mxGeometry x="330" y="260" width="80" height="80" as="geometry" />
        </mxCell>
        <mxCell id="U2BK-bpz5eqN0hKOcZLU-9" value="" style="rounded=0;whiteSpace=wrap;html=1;" parent="1" vertex="1">
          <mxGeometry x="310" y="400" width="120" height="60" as="geometry" />
        </mxCell>
        <mxCell id="U2BK-bpz5eqN0hKOcZLU-10" value="" style="ellipse;whiteSpace=wrap;html=1;" parent="1" vertex="1">
          <mxGeometry x="90" y="390" width="100" height="80" as="geometry" />
        </mxCell>
        <mxCell id="U2BK-bpz5eqN0hKOcZLU-11" value="" style="rhombus;whiteSpace=wrap;html=1;" parent="1" vertex="1">
          <mxGeometry x="845" y="230" width="80" height="80" as="geometry" />
        </mxCell>
        <mxCell id="U2BK-bpz5eqN0hKOcZLU-12" value="" style="ellipse;whiteSpace=wrap;html=1;" parent="1" vertex="1">
          <mxGeometry x="825" y="-20" width="120" height="80" as="geometry" />
        </mxCell>
        <mxCell id="U2BK-bpz5eqN0hKOcZLU-13" value="" style="rounded=0;whiteSpace=wrap;html=1;" parent="1" vertex="1">
          <mxGeometry x="827" y="355" width="120" height="60" as="geometry" />
        </mxCell>
        <mxCell id="U2BK-bpz5eqN0hKOcZLU-14" value="" style="rounded=0;whiteSpace=wrap;html=1;" parent="1" vertex="1">
          <mxGeometry x="825" y="115" width="120" height="60" as="geometry" />
        </mxCell>
        <mxCell id="U2BK-bpz5eqN0hKOcZLU-15" value="" style="rhombus;whiteSpace=wrap;html=1;" parent="1" vertex="1">
          <mxGeometry x="330" y="550" width="80" height="80" as="geometry" />
        </mxCell>
        <mxCell id="U2BK-bpz5eqN0hKOcZLU-16" value="" style="rounded=0;whiteSpace=wrap;html=1;" parent="1" vertex="1">
          <mxGeometry x="310" y="700" width="120" height="60" as="geometry" />
        </mxCell>
        <mxCell id="U2BK-bpz5eqN0hKOcZLU-17" value="" style="ellipse;whiteSpace=wrap;html=1;" parent="1" vertex="1">
          <mxGeometry x="310" y="820" width="120" height="80" as="geometry" />
        </mxCell>
        <mxCell id="U2BK-bpz5eqN0hKOcZLU-18" value="" style="rhombus;whiteSpace=wrap;html=1;" parent="1" vertex="1">
          <mxGeometry x="110" y="690" width="80" height="80" as="geometry" />
        </mxCell>
        <mxCell id="U2BK-bpz5eqN0hKOcZLU-19" value="" style="rounded=0;whiteSpace=wrap;html=1;" parent="1" vertex="1">
          <mxGeometry x="90" y="830" width="120" height="60" as="geometry" />
        </mxCell>
        <mxCell id="U2BK-bpz5eqN0hKOcZLU-80" style="edgeStyle=orthogonalEdgeStyle;rounded=0;orthogonalLoop=1;jettySize=auto;html=1;exitX=0;exitY=0.5;exitDx=0;exitDy=0;entryX=1;entryY=0.5;entryDx=0;entryDy=0;" parent="1" source="U2BK-bpz5eqN0hKOcZLU-21" target="U2BK-bpz5eqN0hKOcZLU-16" edge="1">
          <mxGeometry relative="1" as="geometry">
            <Array as="points">
              <mxPoint x="575" y="740" />
              <mxPoint x="430" y="740" />
            </Array>
          </mxGeometry>
        </mxCell>
        <mxCell id="U2BK-bpz5eqN0hKOcZLU-106" style="edgeStyle=orthogonalEdgeStyle;rounded=0;orthogonalLoop=1;jettySize=auto;html=1;exitX=1;exitY=0.5;exitDx=0;exitDy=0;entryX=0;entryY=0.5;entryDx=0;entryDy=0;" parent="1" source="U2BK-bpz5eqN0hKOcZLU-21" target="U2BK-bpz5eqN0hKOcZLU-25" edge="1">
          <mxGeometry relative="1" as="geometry">
            <Array as="points">
              <mxPoint x="655" y="690" />
              <mxPoint x="760" y="690" />
              <mxPoint x="760" y="520" />
            </Array>
          </mxGeometry>
        </mxCell>
        <mxCell id="U2BK-bpz5eqN0hKOcZLU-21" value="" style="rhombus;whiteSpace=wrap;html=1;" parent="1" vertex="1">
          <mxGeometry x="575" y="655" width="80" height="80" as="geometry" />
        </mxCell>
        <mxCell id="U2BK-bpz5eqN0hKOcZLU-22" value="" style="rhombus;whiteSpace=wrap;html=1;" parent="1" vertex="1">
          <mxGeometry x="575" y="530" width="80" height="80" as="geometry" />
        </mxCell>
        <mxCell id="U2BK-bpz5eqN0hKOcZLU-23" value="" style="rhombus;whiteSpace=wrap;html=1;" parent="1" vertex="1">
          <mxGeometry x="710" y="355" width="80" height="80" as="geometry" />
        </mxCell>
        <mxCell id="U2BK-bpz5eqN0hKOcZLU-25" value="" style="rounded=0;whiteSpace=wrap;html=1;" parent="1" vertex="1">
          <mxGeometry x="790" y="490" width="120" height="60" as="geometry" />
        </mxCell>
        <mxCell id="U2BK-bpz5eqN0hKOcZLU-26" value="" style="rhombus;whiteSpace=wrap;html=1;" parent="1" vertex="1">
          <mxGeometry x="810" y="590" width="80" height="80" as="geometry" />
        </mxCell>
        <mxCell id="U2BK-bpz5eqN0hKOcZLU-27" value="" style="rounded=0;whiteSpace=wrap;html=1;" parent="1" vertex="1">
          <mxGeometry x="790" y="750" width="120" height="60" as="geometry" />
        </mxCell>
        <mxCell id="U2BK-bpz5eqN0hKOcZLU-28" value="" style="ellipse;whiteSpace=wrap;html=1;" parent="1" vertex="1">
          <mxGeometry x="610" y="745" width="100" height="70" as="geometry" />
        </mxCell>
        <mxCell id="U2BK-bpz5eqN0hKOcZLU-29" value="" style="rhombus;whiteSpace=wrap;html=1;" parent="1" vertex="1">
          <mxGeometry x="810" y="860" width="80" height="80" as="geometry" />
        </mxCell>
        <mxCell id="U2BK-bpz5eqN0hKOcZLU-30" value="" style="rounded=0;whiteSpace=wrap;html=1;" parent="1" vertex="1">
          <mxGeometry x="790" y="980" width="120" height="60" as="geometry" />
        </mxCell>
        <mxCell id="U2BK-bpz5eqN0hKOcZLU-36" value="" style="endArrow=none;html=1;rounded=0;entryX=0.5;entryY=1;entryDx=0;entryDy=0;" parent="1" target="U2BK-bpz5eqN0hKOcZLU-4" edge="1">
          <mxGeometry width="50" height="50" relative="1" as="geometry">
            <mxPoint x="370" y="260" as="sourcePoint" />
            <mxPoint x="420" y="210" as="targetPoint" />
            <Array as="points">
              <mxPoint x="370" y="230" />
            </Array>
          </mxGeometry>
        </mxCell>
        <mxCell id="U2BK-bpz5eqN0hKOcZLU-37" value="" style="line;strokeWidth=2;direction=south;html=1;" parent="1" vertex="1">
          <mxGeometry x="880" y="175" width="10" height="55" as="geometry" />
        </mxCell>
        <mxCell id="U2BK-bpz5eqN0hKOcZLU-38" value="" style="line;strokeWidth=2;html=1;" parent="1" vertex="1">
          <mxGeometry x="210" y="165" width="90" height="10" as="geometry" />
        </mxCell>
        <mxCell id="U2BK-bpz5eqN0hKOcZLU-41" value="" style="line;strokeWidth=2;direction=south;html=1;" parent="1" vertex="1">
          <mxGeometry x="365" y="340" width="10" height="60" as="geometry" />
        </mxCell>
        <mxCell id="U2BK-bpz5eqN0hKOcZLU-42" value="" style="line;strokeWidth=2;direction=south;html=1;" parent="1" vertex="1">
          <mxGeometry x="240" y="460" width="260" height="90" as="geometry" />
        </mxCell>
        <mxCell id="U2BK-bpz5eqN0hKOcZLU-45" value="" style="line;strokeWidth=2;direction=south;html=1;" parent="1" vertex="1">
          <mxGeometry x="365" y="630" width="10" height="70" as="geometry" />
        </mxCell>
        <mxCell id="U2BK-bpz5eqN0hKOcZLU-46" value="" style="line;strokeWidth=2;direction=south;html=1;" parent="1" vertex="1">
          <mxGeometry x="365" y="760" width="10" height="60" as="geometry" />
        </mxCell>
        <mxCell id="U2BK-bpz5eqN0hKOcZLU-48" value="" style="line;strokeWidth=2;html=1;" parent="1" vertex="1">
          <mxGeometry x="190" y="725" width="120" height="10" as="geometry" />
        </mxCell>
        <mxCell id="U2BK-bpz5eqN0hKOcZLU-49" value="" style="line;strokeWidth=2;direction=south;html=1;" parent="1" vertex="1">
          <mxGeometry x="145" y="770" width="10" height="60" as="geometry" />
        </mxCell>
        <mxCell id="U2BK-bpz5eqN0hKOcZLU-50" value="" style="line;strokeWidth=2;html=1;" parent="1" vertex="1">
          <mxGeometry x="190" y="425" width="120" height="10" as="geometry" />
        </mxCell>
        <mxCell id="U2BK-bpz5eqN0hKOcZLU-51" value="" style="line;strokeWidth=2;direction=south;html=1;" parent="1" vertex="1">
          <mxGeometry x="880" y="60" width="10" height="55" as="geometry" />
        </mxCell>
        <mxCell id="U2BK-bpz5eqN0hKOcZLU-52" value="" style="line;strokeWidth=2;direction=south;html=1;" parent="1" vertex="1">
          <mxGeometry x="880" y="310" width="10" height="45" as="geometry" />
        </mxCell>
        <mxCell id="U2BK-bpz5eqN0hKOcZLU-54" value="" style="line;strokeWidth=2;direction=south;html=1;" parent="1" vertex="1">
          <mxGeometry x="845" y="810" width="10" height="50" as="geometry" />
        </mxCell>
        <mxCell id="U2BK-bpz5eqN0hKOcZLU-55" value="" style="line;strokeWidth=2;direction=south;html=1;" parent="1" vertex="1">
          <mxGeometry x="845" y="940" width="10" height="40" as="geometry" />
        </mxCell>
        <mxCell id="U2BK-bpz5eqN0hKOcZLU-56" value="" style="line;strokeWidth=2;direction=south;html=1;" parent="1" vertex="1">
          <mxGeometry x="845" y="670" width="10" height="80" as="geometry" />
        </mxCell>
        <mxCell id="U2BK-bpz5eqN0hKOcZLU-57" value="" style="line;strokeWidth=2;direction=south;html=1;" parent="1" vertex="1">
          <mxGeometry x="845" y="550" width="10" height="40" as="geometry" />
        </mxCell>
        <mxCell id="U2BK-bpz5eqN0hKOcZLU-58" value="" style="line;strokeWidth=2;html=1;" parent="1" vertex="1">
          <mxGeometry x="710" y="775" width="80" height="10" as="geometry" />
        </mxCell>
        <mxCell id="U2BK-bpz5eqN0hKOcZLU-83" value="&lt;font style=&quot;font-size: 14px;&quot;&gt;Ima&lt;/font&gt;" style="text;strokeColor=none;align=center;fillColor=none;html=1;verticalAlign=middle;whiteSpace=wrap;rounded=0;" parent="1" vertex="1">
          <mxGeometry x="340" y="285" width="60" height="30" as="geometry" />
        </mxCell>
        <mxCell id="U2BK-bpz5eqN0hKOcZLU-84" value="&lt;font style=&quot;font-size: 20px;&quot;&gt;Auto&lt;/font&gt;" style="text;strokeColor=none;align=center;fillColor=none;html=1;verticalAlign=middle;whiteSpace=wrap;rounded=0;" parent="1" vertex="1">
          <mxGeometry x="340" y="415" width="60" height="30" as="geometry" />
        </mxCell>
        <mxCell id="U2BK-bpz5eqN0hKOcZLU-86" value="&lt;font style=&quot;font-size: 14px;&quot;&gt;Podleže&lt;/font&gt;" style="text;strokeColor=none;align=center;fillColor=none;html=1;verticalAlign=middle;whiteSpace=wrap;rounded=0;" parent="1" vertex="1">
          <mxGeometry x="340" y="575" width="60" height="30" as="geometry" />
        </mxCell>
        <mxCell id="U2BK-bpz5eqN0hKOcZLU-87" value="&lt;font style=&quot;font-size: 14px;&quot;&gt;Servis&lt;/font&gt;" style="text;strokeColor=none;align=center;fillColor=none;html=1;verticalAlign=middle;whiteSpace=wrap;rounded=0;" parent="1" vertex="1">
          <mxGeometry x="340" y="715" width="60" height="30" as="geometry" />
        </mxCell>
        <mxCell id="U2BK-bpz5eqN0hKOcZLU-88" value="&lt;font style=&quot;font-size: 14px;&quot;&gt;Opis&lt;/font&gt;" style="text;strokeColor=none;align=center;fillColor=none;html=1;verticalAlign=middle;whiteSpace=wrap;rounded=0;" parent="1" vertex="1">
          <mxGeometry x="340" y="845" width="60" height="30" as="geometry" />
        </mxCell>
        <mxCell id="U2BK-bpz5eqN0hKOcZLU-89" value="&lt;font style=&quot;font-size: 14px;&quot;&gt;Naplata&lt;/font&gt;" style="text;strokeColor=none;align=center;fillColor=none;html=1;verticalAlign=middle;whiteSpace=wrap;rounded=0;" parent="1" vertex="1">
          <mxGeometry x="120" y="715" width="60" height="30" as="geometry" />
        </mxCell>
        <mxCell id="U2BK-bpz5eqN0hKOcZLU-90" value="&lt;font style=&quot;font-size: 17px;&quot;&gt;Reg. broj&lt;/font&gt;" style="text;strokeColor=none;align=center;fillColor=none;html=1;verticalAlign=middle;whiteSpace=wrap;rounded=0;" parent="1" vertex="1">
          <mxGeometry x="110" y="415" width="60" height="30" as="geometry" />
        </mxCell>
        <mxCell id="U2BK-bpz5eqN0hKOcZLU-91" value="&lt;font style=&quot;font-size: 14px;&quot;&gt;Račun&lt;/font&gt;" style="text;strokeColor=none;align=center;fillColor=none;html=1;verticalAlign=middle;whiteSpace=wrap;rounded=0;" parent="1" vertex="1">
          <mxGeometry x="120" y="845" width="60" height="30" as="geometry" />
        </mxCell>
        <mxCell id="U2BK-bpz5eqN0hKOcZLU-92" value="&lt;font style=&quot;font-size: 17px;&quot;&gt;Ima&lt;/font&gt;" style="text;strokeColor=none;align=center;fillColor=none;html=1;verticalAlign=middle;whiteSpace=wrap;rounded=0;" parent="1" vertex="1">
          <mxGeometry x="857" y="255" width="60" height="30" as="geometry" />
        </mxCell>
        <mxCell id="U2BK-bpz5eqN0hKOcZLU-93" value="&lt;font style=&quot;font-size: 14px;&quot;&gt;Nabavlja&lt;/font&gt;" style="text;strokeColor=none;align=center;fillColor=none;html=1;verticalAlign=middle;whiteSpace=wrap;rounded=0;" parent="1" vertex="1">
          <mxGeometry x="585" y="680" width="60" height="30" as="geometry" />
        </mxCell>
        <mxCell id="U2BK-bpz5eqN0hKOcZLU-94" value="&lt;font style=&quot;font-size: 14px;&quot;&gt;Odgovor&lt;/font&gt;" style="text;strokeColor=none;align=center;fillColor=none;html=1;verticalAlign=middle;whiteSpace=wrap;rounded=0;" parent="1" vertex="1">
          <mxGeometry x="585" y="555" width="60" height="30" as="geometry" />
        </mxCell>
        <mxCell id="U2BK-bpz5eqN0hKOcZLU-95" value="&lt;font style=&quot;font-size: 14px;&quot;&gt;Dobija&lt;/font&gt;" style="text;strokeColor=none;align=center;fillColor=none;html=1;verticalAlign=middle;whiteSpace=wrap;rounded=0;" parent="1" vertex="1">
          <mxGeometry x="720" y="380" width="60" height="30" as="geometry" />
        </mxCell>
        <mxCell id="U2BK-bpz5eqN0hKOcZLU-96" value="&lt;font style=&quot;font-size: 19px;&quot;&gt;Tip kvara&lt;/font&gt;" style="text;strokeColor=none;align=center;fillColor=none;html=1;verticalAlign=middle;whiteSpace=wrap;rounded=0;" parent="1" vertex="1">
          <mxGeometry x="845" y="130" width="80" height="30" as="geometry" />
        </mxCell>
        <mxCell id="U2BK-bpz5eqN0hKOcZLU-98" value="&lt;font style=&quot;font-size: 17px;&quot;&gt;Opis&lt;/font&gt;" style="text;strokeColor=none;align=center;fillColor=none;html=1;verticalAlign=middle;whiteSpace=wrap;rounded=0;" parent="1" vertex="1">
          <mxGeometry x="855" y="5" width="60" height="30" as="geometry" />
        </mxCell>
        <mxCell id="U2BK-bpz5eqN0hKOcZLU-99" value="&lt;font style=&quot;font-size: 14px;&quot;&gt;Nalog&lt;/font&gt;" style="text;strokeColor=none;align=center;fillColor=none;html=1;verticalAlign=middle;whiteSpace=wrap;rounded=0;" parent="1" vertex="1">
          <mxGeometry x="857" y="370" width="60" height="30" as="geometry" />
        </mxCell>
        <mxCell id="U2BK-bpz5eqN0hKOcZLU-100" value="&lt;font style=&quot;font-size: 14px;&quot;&gt;Porudžbenica&lt;/font&gt;" style="text;strokeColor=none;align=center;fillColor=none;html=1;verticalAlign=middle;whiteSpace=wrap;rounded=0;" parent="1" vertex="1">
          <mxGeometry x="820" y="505" width="60" height="30" as="geometry" />
        </mxCell>
        <mxCell id="U2BK-bpz5eqN0hKOcZLU-101" value="&lt;font style=&quot;font-size: 14px;&quot;&gt;Potržuje&lt;/font&gt;" style="text;strokeColor=none;align=center;fillColor=none;html=1;verticalAlign=middle;whiteSpace=wrap;rounded=0;" parent="1" vertex="1">
          <mxGeometry x="820" y="615" width="60" height="30" as="geometry" />
        </mxCell>
        <mxCell id="U2BK-bpz5eqN0hKOcZLU-102" value="&lt;font style=&quot;font-size: 14px;&quot;&gt;Rez.delovi&lt;/font&gt;" style="text;strokeColor=none;align=center;fillColor=none;html=1;verticalAlign=middle;whiteSpace=wrap;rounded=0;" parent="1" vertex="1">
          <mxGeometry x="820" y="765" width="60" height="30" as="geometry" />
        </mxCell>
        <mxCell id="U2BK-bpz5eqN0hKOcZLU-103" value="&lt;font style=&quot;font-size: 14px;&quot;&gt;Sadržaj&lt;/font&gt;" style="text;strokeColor=none;align=center;fillColor=none;html=1;verticalAlign=middle;whiteSpace=wrap;rounded=0;" parent="1" vertex="1">
          <mxGeometry x="820" y="885" width="60" height="30" as="geometry" />
        </mxCell>
        <mxCell id="U2BK-bpz5eqN0hKOcZLU-104" value="&lt;font style=&quot;font-size: 14px;&quot;&gt;Baza podataka&lt;/font&gt;" style="text;strokeColor=none;align=center;fillColor=none;html=1;verticalAlign=middle;whiteSpace=wrap;rounded=0;" parent="1" vertex="1">
          <mxGeometry x="820" y="995" width="60" height="30" as="geometry" />
        </mxCell>
        <mxCell id="U2BK-bpz5eqN0hKOcZLU-105" value="&lt;font style=&quot;font-size: 14px;&quot;&gt;Šifra&lt;/font&gt;" style="text;strokeColor=none;align=center;fillColor=none;html=1;verticalAlign=middle;whiteSpace=wrap;rounded=0;" parent="1" vertex="1">
          <mxGeometry x="630" y="765" width="60" height="30" as="geometry" />
        </mxCell>
        <mxCell id="U2BK-bpz5eqN0hKOcZLU-108" value="" style="shape=ext;double=1;rounded=0;whiteSpace=wrap;html=1;" parent="1" vertex="1">
          <mxGeometry x="660" y="1530" width="340" height="240" as="geometry" />
        </mxCell>
        <mxCell id="U2BK-bpz5eqN0hKOcZLU-109" value="&lt;font style=&quot;font-size: 37px;&quot;&gt;Auto servis&lt;/font&gt;" style="text;strokeColor=none;align=center;fillColor=none;html=1;verticalAlign=middle;whiteSpace=wrap;rounded=0;" parent="1" vertex="1">
          <mxGeometry x="800" y="1635" width="60" height="30" as="geometry" />
        </mxCell>
        <mxCell id="U2BK-bpz5eqN0hKOcZLU-113" value="&lt;font style=&quot;font-size: 22px;&quot;&gt;Praćenje servisa&lt;/font&gt;" style="text;strokeColor=none;align=center;fillColor=none;html=1;verticalAlign=middle;whiteSpace=wrap;rounded=0;" parent="1" vertex="1">
          <mxGeometry x="695" y="1330" width="60" height="30" as="geometry" />
        </mxCell>
        <mxCell id="U2BK-bpz5eqN0hKOcZLU-115" value="&lt;font style=&quot;font-size: 22px;&quot;&gt;Zakonske regulative&lt;/font&gt;" style="text;strokeColor=none;align=center;fillColor=none;html=1;verticalAlign=middle;whiteSpace=wrap;rounded=0;" parent="1" vertex="1">
          <mxGeometry x="830" y="1330" width="60" height="30" as="geometry" />
        </mxCell>
        <mxCell id="U2BK-bpz5eqN0hKOcZLU-116" value="&lt;font style=&quot;font-size: 22px;&quot;&gt;Pravila zastupnika&lt;/font&gt;" style="text;strokeColor=none;align=center;fillColor=none;html=1;verticalAlign=middle;whiteSpace=wrap;rounded=0;" parent="1" vertex="1">
          <mxGeometry x="960" y="1330" width="60" height="30" as="geometry" />
        </mxCell>
        <mxCell id="U2BK-bpz5eqN0hKOcZLU-118" value="" style="line;strokeWidth=2;html=1;" parent="1" vertex="1">
          <mxGeometry x="410" y="1550" width="250" height="10" as="geometry" />
        </mxCell>
        <mxCell id="U2BK-bpz5eqN0hKOcZLU-120" value="" style="line;strokeWidth=2;html=1;" parent="1" vertex="1">
          <mxGeometry x="410" y="1625" width="250" height="10" as="geometry" />
        </mxCell>
        <mxCell id="U2BK-bpz5eqN0hKOcZLU-121" value="" style="line;strokeWidth=2;html=1;" parent="1" vertex="1">
          <mxGeometry x="410" y="1680" width="250" height="10" as="geometry" />
        </mxCell>
        <mxCell id="U2BK-bpz5eqN0hKOcZLU-122" value="" style="line;strokeWidth=2;html=1;" parent="1" vertex="1">
          <mxGeometry x="410" y="1744" width="250" height="10" as="geometry" />
        </mxCell>
        <mxCell id="U2BK-bpz5eqN0hKOcZLU-123" value="" style="line;strokeWidth=2;html=1;" parent="1" vertex="1">
          <mxGeometry x="1000" y="1550" width="250" height="10" as="geometry" />
        </mxCell>
        <mxCell id="U2BK-bpz5eqN0hKOcZLU-124" value="" style="line;strokeWidth=2;html=1;" parent="1" vertex="1">
          <mxGeometry x="1000" y="1625" width="250" height="10" as="geometry" />
        </mxCell>
        <mxCell id="U2BK-bpz5eqN0hKOcZLU-125" value="" style="line;strokeWidth=2;html=1;" parent="1" vertex="1">
          <mxGeometry x="1000" y="1680" width="250" height="10" as="geometry" />
        </mxCell>
        <mxCell id="U2BK-bpz5eqN0hKOcZLU-126" value="+" style="line;strokeWidth=2;html=1;" parent="1" vertex="1">
          <mxGeometry x="1000" y="1744" width="250" height="10" as="geometry" />
        </mxCell>
        <mxCell id="U2BK-bpz5eqN0hKOcZLU-127" value="&lt;font style=&quot;font-size: 22px;&quot;&gt;Zakazivanje servisa&lt;/font&gt;" style="text;strokeColor=none;align=left;fillColor=none;html=1;verticalAlign=middle;whiteSpace=wrap;rounded=0;" parent="1" vertex="1">
          <mxGeometry x="410" y="1520" width="215" height="30" as="geometry" />
        </mxCell>
        <mxCell id="U2BK-bpz5eqN0hKOcZLU-128" value="&lt;font style=&quot;font-size: 22px;&quot;&gt;Naručivanje delova&lt;/font&gt;" style="text;strokeColor=none;align=left;fillColor=none;html=1;verticalAlign=middle;whiteSpace=wrap;rounded=0;" parent="1" vertex="1">
          <mxGeometry x="410" y="1595" width="210" height="30" as="geometry" />
        </mxCell>
        <mxCell id="U2BK-bpz5eqN0hKOcZLU-129" value="&lt;font style=&quot;font-size: 22px;&quot;&gt;Pomoć na putu&lt;/font&gt;" style="text;strokeColor=none;align=left;fillColor=none;html=1;verticalAlign=middle;whiteSpace=wrap;rounded=0;" parent="1" vertex="1">
          <mxGeometry x="410" y="1650" width="170" height="30" as="geometry" />
        </mxCell>
        <mxCell id="U2BK-bpz5eqN0hKOcZLU-130" value="&lt;font style=&quot;font-size: 22px;&quot;&gt;Informacije o vozilu&lt;/font&gt;" style="text;strokeColor=none;align=left;fillColor=none;html=1;verticalAlign=middle;whiteSpace=wrap;rounded=0;" parent="1" vertex="1">
          <mxGeometry x="410" y="1714" width="196" height="30" as="geometry" />
        </mxCell>
        <mxCell id="U2BK-bpz5eqN0hKOcZLU-132" value="&lt;font style=&quot;font-size: 22px;&quot;&gt;Tex. informacije vozila&lt;/font&gt;" style="text;strokeColor=none;align=right;fillColor=none;html=1;verticalAlign=middle;whiteSpace=wrap;rounded=0;" parent="1" vertex="1">
          <mxGeometry x="1050" y="1520" width="230" height="30" as="geometry" />
        </mxCell>
        <mxCell id="U2BK-bpz5eqN0hKOcZLU-133" value="&lt;span style=&quot;font-size: 22px;&quot;&gt;Spisak delova&lt;/span&gt;" style="text;strokeColor=none;align=right;fillColor=none;html=1;verticalAlign=middle;whiteSpace=wrap;rounded=0;" parent="1" vertex="1">
          <mxGeometry x="1120" y="1595" width="160" height="30" as="geometry" />
        </mxCell>
        <mxCell id="U2BK-bpz5eqN0hKOcZLU-134" value="&lt;font style=&quot;font-size: 22px;&quot;&gt;Plaćanje&lt;/font&gt;" style="text;strokeColor=none;align=right;fillColor=none;html=1;verticalAlign=middle;whiteSpace=wrap;rounded=0;" parent="1" vertex="1">
          <mxGeometry x="1220" y="1650" width="60" height="30" as="geometry" />
        </mxCell>
        <mxCell id="U2BK-bpz5eqN0hKOcZLU-135" value="&lt;span style=&quot;font-size: 22px;&quot;&gt;Automatska obaveštenja&lt;/span&gt;" style="text;strokeColor=none;align=right;fillColor=none;html=1;verticalAlign=middle;whiteSpace=wrap;rounded=0;" parent="1" vertex="1">
          <mxGeometry x="1030" y="1714" width="250" height="30" as="geometry" />
        </mxCell>
        <mxCell id="U2BK-bpz5eqN0hKOcZLU-140" value="" style="shape=partialRectangle;whiteSpace=wrap;html=1;bottom=0;right=0;fillColor=none;strokeWidth=2;" parent="1" vertex="1">
          <mxGeometry x="600" y="1820" width="120" height="60" as="geometry" />
        </mxCell>
        <mxCell id="U2BK-bpz5eqN0hKOcZLU-141" value="" style="line;strokeWidth=2;direction=south;html=1;" parent="1" vertex="1">
          <mxGeometry x="710" y="1770" width="10" height="50" as="geometry" />
        </mxCell>
        <mxCell id="U2BK-bpz5eqN0hKOcZLU-142" value="&lt;span style=&quot;font-size: 22px;&quot;&gt;Inventar&lt;/span&gt;" style="text;strokeColor=none;align=center;fillColor=none;html=1;verticalAlign=middle;whiteSpace=wrap;rounded=0;" parent="1" vertex="1">
          <mxGeometry x="570" y="1890" width="60" height="30" as="geometry" />
        </mxCell>
        <mxCell id="U2BK-bpz5eqN0hKOcZLU-143" value="" style="line;strokeWidth=2;direction=south;html=1;" parent="1" vertex="1">
          <mxGeometry x="780" y="1770" width="10" height="110" as="geometry" />
        </mxCell>
        <mxCell id="U2BK-bpz5eqN0hKOcZLU-144" value="" style="line;strokeWidth=2;direction=south;html=1;" parent="1" vertex="1">
          <mxGeometry x="890" y="1770" width="10" height="110" as="geometry" />
        </mxCell>
        <mxCell id="U2BK-bpz5eqN0hKOcZLU-148" value="" style="line;strokeWidth=2;html=1;" parent="1" vertex="1">
          <mxGeometry x="950" y="1820" width="160" height="10" as="geometry" />
        </mxCell>
        <mxCell id="U2BK-bpz5eqN0hKOcZLU-149" value="" style="line;strokeWidth=2;direction=south;html=1;" parent="1" vertex="1">
          <mxGeometry x="950" y="1770" width="10" height="60" as="geometry" />
        </mxCell>
        <mxCell id="U2BK-bpz5eqN0hKOcZLU-150" value="" style="line;strokeWidth=2;direction=south;html=1;" parent="1" vertex="1">
          <mxGeometry x="1100" y="1820" width="10" height="60" as="geometry" />
        </mxCell>
        <mxCell id="U2BK-bpz5eqN0hKOcZLU-151" value="&lt;font style=&quot;font-size: 22px;&quot;&gt;Mehaničar&lt;/font&gt;" style="text;strokeColor=none;align=center;fillColor=none;html=1;verticalAlign=middle;whiteSpace=wrap;rounded=0;" parent="1" vertex="1">
          <mxGeometry x="755" y="1880" width="60" height="30" as="geometry" />
        </mxCell>
        <mxCell id="U2BK-bpz5eqN0hKOcZLU-152" value="&lt;font style=&quot;font-size: 22px;&quot;&gt;Pomoćni radnik&lt;/font&gt;" style="text;strokeColor=none;align=center;fillColor=none;html=1;verticalAlign=middle;whiteSpace=wrap;rounded=0;" parent="1" vertex="1">
          <mxGeometry x="890" y="1890" width="60" height="30" as="geometry" />
        </mxCell>
        <mxCell id="U2BK-bpz5eqN0hKOcZLU-153" style="edgeStyle=orthogonalEdgeStyle;rounded=0;orthogonalLoop=1;jettySize=auto;html=1;exitX=0.5;exitY=1;exitDx=0;exitDy=0;" parent="1" source="U2BK-bpz5eqN0hKOcZLU-152" target="U2BK-bpz5eqN0hKOcZLU-152" edge="1">
          <mxGeometry relative="1" as="geometry" />
        </mxCell>
        <mxCell id="U2BK-bpz5eqN0hKOcZLU-154" value="&lt;font style=&quot;font-size: 22px;&quot;&gt;Baza podataka&lt;/font&gt;" style="text;strokeColor=none;align=center;fillColor=none;html=1;verticalAlign=middle;whiteSpace=wrap;rounded=0;" parent="1" vertex="1">
          <mxGeometry x="1075" y="1890" width="60" height="30" as="geometry" />
        </mxCell>
        <mxCell id="U2BK-bpz5eqN0hKOcZLU-155" value="" style="line;strokeWidth=2;direction=south;html=1;" parent="1" vertex="1">
          <mxGeometry x="960" y="1370" width="10" height="160" as="geometry" />
        </mxCell>
        <mxCell id="U2BK-bpz5eqN0hKOcZLU-156" value="" style="line;strokeWidth=2;direction=south;html=1;" parent="1" vertex="1">
          <mxGeometry x="825" y="1370" width="10" height="160" as="geometry" />
        </mxCell>
        <mxCell id="U2BK-bpz5eqN0hKOcZLU-157" value="" style="line;strokeWidth=2;direction=south;html=1;" parent="1" vertex="1">
          <mxGeometry x="720" y="1370" width="10" height="160" as="geometry" />
        </mxCell>
        <mxCell id="yKFIaz3pd3TtpUPVtPru-1" value="" style="rounded=0;whiteSpace=wrap;html=1;" parent="1" vertex="1">
          <mxGeometry x="320" y="2040" width="120" height="60" as="geometry" />
        </mxCell>
        <mxCell id="yKFIaz3pd3TtpUPVtPru-2" value="&lt;font style=&quot;font-size: 21px;&quot;&gt;Mušterija&lt;/font&gt;" style="text;strokeColor=none;align=center;fillColor=none;html=1;verticalAlign=middle;whiteSpace=wrap;rounded=0;" parent="1" vertex="1">
          <mxGeometry x="350" y="2060" width="60" height="30" as="geometry" />
        </mxCell>
        <mxCell id="yKFIaz3pd3TtpUPVtPru-3" value="" style="ellipse;whiteSpace=wrap;html=1;" parent="1" vertex="1">
          <mxGeometry x="730" y="2200" width="140" height="80" as="geometry" />
        </mxCell>
        <mxCell id="yKFIaz3pd3TtpUPVtPru-4" value="" style="ellipse;whiteSpace=wrap;html=1;" parent="1" vertex="1">
          <mxGeometry x="540" y="2200" width="130" height="80" as="geometry" />
        </mxCell>
        <mxCell id="yKFIaz3pd3TtpUPVtPru-5" value="" style="ellipse;whiteSpace=wrap;html=1;" parent="1" vertex="1">
          <mxGeometry x="320" y="2200" width="160" height="80" as="geometry" />
        </mxCell>
        <mxCell id="yKFIaz3pd3TtpUPVtPru-6" value="&lt;span style=&quot;font-size: 18px;&quot;&gt;Plaćanje u lokalu krticom&lt;/span&gt;" style="text;strokeColor=none;align=center;fillColor=none;html=1;verticalAlign=middle;whiteSpace=wrap;rounded=0;" parent="1" vertex="1">
          <mxGeometry x="350" y="2225" width="90" height="30" as="geometry" />
        </mxCell>
        <mxCell id="yKFIaz3pd3TtpUPVtPru-7" value="&lt;span style=&quot;font-size: 16px;&quot;&gt;Plaćanje karticom&lt;br&gt;online&lt;br&gt;&lt;/span&gt;" style="text;strokeColor=none;align=center;fillColor=none;html=1;verticalAlign=middle;whiteSpace=wrap;rounded=0;" parent="1" vertex="1">
          <mxGeometry x="760" y="2225" width="80" height="30" as="geometry" />
        </mxCell>
        <mxCell id="yKFIaz3pd3TtpUPVtPru-8" value="&lt;span style=&quot;font-size: 16px;&quot;&gt;Plaćanje kešom&lt;/span&gt;" style="text;strokeColor=none;align=center;fillColor=none;html=1;verticalAlign=middle;whiteSpace=wrap;rounded=0;" parent="1" vertex="1">
          <mxGeometry x="575" y="2225" width="60" height="30" as="geometry" />
        </mxCell>
        <mxCell id="yKFIaz3pd3TtpUPVtPru-9" value="&lt;span style=&quot;font-size: 16px;&quot;&gt;Opcije za plaćanje&lt;/span&gt;" style="text;strokeColor=none;align=center;fillColor=none;html=1;verticalAlign=middle;whiteSpace=wrap;rounded=0;" parent="1" vertex="1">
          <mxGeometry x="535" y="2410" width="135" height="30" as="geometry" />
        </mxCell>
        <mxCell id="yKFIaz3pd3TtpUPVtPru-10" value="" style="ellipse;whiteSpace=wrap;html=1;" parent="1" vertex="1">
          <mxGeometry x="540" y="2540" width="120" height="80" as="geometry" />
        </mxCell>
        <mxCell id="yKFIaz3pd3TtpUPVtPru-11" value="&lt;span style=&quot;font-size: 16px;&quot;&gt;Izdavanje računa&lt;/span&gt;" style="text;strokeColor=none;align=center;fillColor=none;html=1;verticalAlign=middle;whiteSpace=wrap;rounded=0;" parent="1" vertex="1">
          <mxGeometry x="572.5" y="2565" width="60" height="30" as="geometry" />
        </mxCell>
        <mxCell id="yKFIaz3pd3TtpUPVtPru-15" value="" style="endArrow=none;html=1;rounded=0;" parent="1" edge="1">
          <mxGeometry width="50" height="50" relative="1" as="geometry">
            <mxPoint x="620" y="2440" as="sourcePoint" />
            <mxPoint x="730" y="2440" as="targetPoint" />
            <Array as="points">
              <mxPoint x="510" y="2440" />
            </Array>
          </mxGeometry>
        </mxCell>
        <mxCell id="yKFIaz3pd3TtpUPVtPru-17" value="" style="endArrow=none;html=1;rounded=0;" parent="1" edge="1">
          <mxGeometry width="50" height="50" relative="1" as="geometry">
            <mxPoint x="620" y="2410" as="sourcePoint" />
            <mxPoint x="730" y="2410" as="targetPoint" />
            <Array as="points">
              <mxPoint x="510" y="2410" />
            </Array>
          </mxGeometry>
        </mxCell>
        <mxCell id="yKFIaz3pd3TtpUPVtPru-18" value="" style="endArrow=none;html=1;rounded=0;exitX=0.358;exitY=-0.019;exitDx=0;exitDy=0;exitPerimeter=0;entryX=0.433;entryY=1.008;entryDx=0;entryDy=0;entryPerimeter=0;" parent="1" target="yKFIaz3pd3TtpUPVtPru-1" edge="1">
          <mxGeometry width="50" height="50" relative="1" as="geometry">
            <mxPoint x="373.75000000000006" y="2200" as="sourcePoint" />
            <mxPoint x="374.79" y="2111.52" as="targetPoint" />
          </mxGeometry>
        </mxCell>
        <mxCell id="yKFIaz3pd3TtpUPVtPru-19" value="" style="endArrow=none;html=1;rounded=0;entryX=0.592;entryY=1.058;entryDx=0;entryDy=0;entryPerimeter=0;" parent="1" target="yKFIaz3pd3TtpUPVtPru-1" edge="1">
          <mxGeometry width="50" height="50" relative="1" as="geometry">
            <mxPoint x="600" y="2200" as="sourcePoint" />
            <mxPoint x="650" y="2150" as="targetPoint" />
          </mxGeometry>
        </mxCell>
        <mxCell id="yKFIaz3pd3TtpUPVtPru-20" value="" style="endArrow=none;html=1;rounded=0;entryX=1;entryY=1;entryDx=0;entryDy=0;" parent="1" target="yKFIaz3pd3TtpUPVtPru-1" edge="1">
          <mxGeometry width="50" height="50" relative="1" as="geometry">
            <mxPoint x="790" y="2200" as="sourcePoint" />
            <mxPoint x="840" y="2150" as="targetPoint" />
          </mxGeometry>
        </mxCell>
        <mxCell id="yKFIaz3pd3TtpUPVtPru-21" value="" style="endArrow=none;html=1;rounded=0;entryX=0.5;entryY=1;entryDx=0;entryDy=0;" parent="1" target="yKFIaz3pd3TtpUPVtPru-5" edge="1">
          <mxGeometry width="50" height="50" relative="1" as="geometry">
            <mxPoint x="535" y="2410" as="sourcePoint" />
            <mxPoint x="585" y="2360" as="targetPoint" />
          </mxGeometry>
        </mxCell>
        <mxCell id="yKFIaz3pd3TtpUPVtPru-23" value="" style="endArrow=none;html=1;rounded=0;entryX=0.5;entryY=1;entryDx=0;entryDy=0;" parent="1" target="yKFIaz3pd3TtpUPVtPru-4" edge="1">
          <mxGeometry width="50" height="50" relative="1" as="geometry">
            <mxPoint x="600" y="2410" as="sourcePoint" />
            <mxPoint x="650" y="2360" as="targetPoint" />
          </mxGeometry>
        </mxCell>
        <mxCell id="yKFIaz3pd3TtpUPVtPru-24" value="" style="endArrow=none;html=1;rounded=0;entryX=0.5;entryY=1;entryDx=0;entryDy=0;" parent="1" target="yKFIaz3pd3TtpUPVtPru-3" edge="1">
          <mxGeometry width="50" height="50" relative="1" as="geometry">
            <mxPoint x="690" y="2410" as="sourcePoint" />
            <mxPoint x="740" y="2360" as="targetPoint" />
          </mxGeometry>
        </mxCell>
        <mxCell id="yKFIaz3pd3TtpUPVtPru-26" value="" style="endArrow=classic;html=1;rounded=0;" parent="1" edge="1">
          <mxGeometry width="50" height="50" relative="1" as="geometry">
            <mxPoint x="570" y="2440" as="sourcePoint" />
            <mxPoint x="580" y="2530" as="targetPoint" />
          </mxGeometry>
        </mxCell>
        <mxCell id="iR1kLNIvm_D38_9lqwLG-1" value="" style="ellipse;whiteSpace=wrap;html=1;" parent="1" vertex="1">
          <mxGeometry x="140" y="310" width="120" height="80" as="geometry" />
        </mxCell>
        <mxCell id="iR1kLNIvm_D38_9lqwLG-2" value="" style="ellipse;whiteSpace=wrap;html=1;" parent="1" vertex="1">
          <mxGeometry x="145" y="470" width="120" height="80" as="geometry" />
        </mxCell>
        <mxCell id="iR1kLNIvm_D38_9lqwLG-3" value="" style="ellipse;whiteSpace=wrap;html=1;" parent="1" vertex="1">
          <mxGeometry x="310" width="120" height="80" as="geometry" />
        </mxCell>
        <mxCell id="iR1kLNIvm_D38_9lqwLG-4" value="" style="ellipse;whiteSpace=wrap;html=1;" parent="1" vertex="1">
          <mxGeometry x="155" y="5" width="120" height="80" as="geometry" />
        </mxCell>
        <mxCell id="iR1kLNIvm_D38_9lqwLG-5" value="&lt;font style=&quot;font-size: 16px;&quot;&gt;Prezime&lt;/font&gt;" style="text;strokeColor=none;align=center;fillColor=none;html=1;verticalAlign=middle;whiteSpace=wrap;rounded=0;" parent="1" vertex="1">
          <mxGeometry x="190" y="30" width="60" height="30" as="geometry" />
        </mxCell>
        <mxCell id="iR1kLNIvm_D38_9lqwLG-6" value="&lt;font style=&quot;font-size: 17px;&quot;&gt;Broj tel.&lt;/font&gt;" style="text;strokeColor=none;align=center;fillColor=none;html=1;verticalAlign=middle;whiteSpace=wrap;rounded=0;" parent="1" vertex="1">
          <mxGeometry x="350" y="30" width="60" height="30" as="geometry" />
        </mxCell>
        <mxCell id="iR1kLNIvm_D38_9lqwLG-7" value="" style="endArrow=none;html=1;rounded=0;entryX=0.5;entryY=1;entryDx=0;entryDy=0;" parent="1" target="iR1kLNIvm_D38_9lqwLG-3" edge="1">
          <mxGeometry width="50" height="50" relative="1" as="geometry">
            <mxPoint x="370" y="140" as="sourcePoint" />
            <mxPoint x="420" y="90" as="targetPoint" />
          </mxGeometry>
        </mxCell>
        <mxCell id="iR1kLNIvm_D38_9lqwLG-8" value="" style="endArrow=none;html=1;rounded=0;entryX=0.5;entryY=1;entryDx=0;entryDy=0;" parent="1" target="iR1kLNIvm_D38_9lqwLG-4" edge="1">
          <mxGeometry width="50" height="50" relative="1" as="geometry">
            <mxPoint x="315" y="140" as="sourcePoint" />
            <mxPoint x="365" y="90" as="targetPoint" />
          </mxGeometry>
        </mxCell>
        <mxCell id="iR1kLNIvm_D38_9lqwLG-9" value="&lt;font style=&quot;font-size: 17px;&quot;&gt;Godište&lt;/font&gt;" style="text;strokeColor=none;align=center;fillColor=none;html=1;verticalAlign=middle;whiteSpace=wrap;rounded=0;" parent="1" vertex="1">
          <mxGeometry x="170" y="340" width="60" height="30" as="geometry" />
        </mxCell>
        <mxCell id="iR1kLNIvm_D38_9lqwLG-10" value="&lt;font style=&quot;font-size: 17px;&quot;&gt;Marka&lt;/font&gt;" style="text;strokeColor=none;align=center;fillColor=none;html=1;verticalAlign=middle;whiteSpace=wrap;rounded=0;" parent="1" vertex="1">
          <mxGeometry x="175" y="495" width="60" height="30" as="geometry" />
        </mxCell>
        <mxCell id="iR1kLNIvm_D38_9lqwLG-11" value="" style="endArrow=none;html=1;rounded=0;exitX=0.875;exitY=0.188;exitDx=0;exitDy=0;exitPerimeter=0;" parent="1" source="iR1kLNIvm_D38_9lqwLG-2" edge="1">
          <mxGeometry width="50" height="50" relative="1" as="geometry">
            <mxPoint x="260" y="485" as="sourcePoint" />
            <mxPoint x="310" y="435" as="targetPoint" />
          </mxGeometry>
        </mxCell>
        <mxCell id="iR1kLNIvm_D38_9lqwLG-12" value="" style="endArrow=none;html=1;rounded=0;entryX=1;entryY=1;entryDx=0;entryDy=0;" parent="1" edge="1">
          <mxGeometry width="50" height="50" relative="1" as="geometry">
            <mxPoint x="310" y="405" as="sourcePoint" />
            <mxPoint x="232.42640687119297" y="383.28427124746213" as="targetPoint" />
          </mxGeometry>
        </mxCell>
        <mxCell id="iR1kLNIvm_D38_9lqwLG-13" value="" style="endArrow=none;html=1;rounded=0;" parent="1" edge="1">
          <mxGeometry width="50" height="50" relative="1" as="geometry">
            <mxPoint x="500" y="710" as="sourcePoint" />
            <mxPoint x="500" y="570" as="targetPoint" />
          </mxGeometry>
        </mxCell>
        <mxCell id="iR1kLNIvm_D38_9lqwLG-14" value="" style="endArrow=none;html=1;rounded=0;" parent="1" edge="1">
          <mxGeometry width="50" height="50" relative="1" as="geometry">
            <mxPoint x="430" y="710" as="sourcePoint" />
            <mxPoint x="500" y="710" as="targetPoint" />
          </mxGeometry>
        </mxCell>
        <mxCell id="iR1kLNIvm_D38_9lqwLG-15" value="" style="endArrow=none;html=1;rounded=0;" parent="1" edge="1">
          <mxGeometry width="50" height="50" relative="1" as="geometry">
            <mxPoint x="500" y="570" as="sourcePoint" />
            <mxPoint x="575" y="569.5" as="targetPoint" />
          </mxGeometry>
        </mxCell>
        <mxCell id="iR1kLNIvm_D38_9lqwLG-16" value="" style="endArrow=none;html=1;rounded=0;entryX=0.393;entryY=1.015;entryDx=0;entryDy=0;entryPerimeter=0;" parent="1" target="U2BK-bpz5eqN0hKOcZLU-13" edge="1">
          <mxGeometry width="50" height="50" relative="1" as="geometry">
            <mxPoint x="655" y="570" as="sourcePoint" />
            <mxPoint x="685" y="440" as="targetPoint" />
          </mxGeometry>
        </mxCell>
        <mxCell id="iR1kLNIvm_D38_9lqwLG-19" value="" style="endArrow=none;html=1;rounded=0;entryX=0;entryY=0.5;entryDx=0;entryDy=0;" parent="1" target="U2BK-bpz5eqN0hKOcZLU-13" edge="1">
          <mxGeometry width="50" height="50" relative="1" as="geometry">
            <mxPoint x="790" y="395" as="sourcePoint" />
            <mxPoint x="795" y="305" as="targetPoint" />
            <Array as="points" />
          </mxGeometry>
        </mxCell>
        <mxCell id="iR1kLNIvm_D38_9lqwLG-20" value="" style="rhombus;whiteSpace=wrap;html=1;" parent="1" vertex="1">
          <mxGeometry x="475" y="400" width="60" height="60" as="geometry" />
        </mxCell>
        <mxCell id="iR1kLNIvm_D38_9lqwLG-21" value="&lt;font style=&quot;font-size: 15px;&quot;&gt;Ima&lt;/font&gt;" style="text;strokeColor=none;align=center;fillColor=none;html=1;verticalAlign=middle;whiteSpace=wrap;rounded=0;" parent="1" vertex="1">
          <mxGeometry x="490" y="415" width="30" height="30" as="geometry" />
        </mxCell>
        <mxCell id="iR1kLNIvm_D38_9lqwLG-22" value="" style="rounded=0;whiteSpace=wrap;html=1;" parent="1" vertex="1">
          <mxGeometry x="550" y="400" width="120" height="60" as="geometry" />
        </mxCell>
        <mxCell id="iR1kLNIvm_D38_9lqwLG-23" value="&lt;font style=&quot;font-size: 17px;&quot;&gt;Termin&lt;/font&gt;" style="text;strokeColor=none;align=center;fillColor=none;html=1;verticalAlign=middle;whiteSpace=wrap;rounded=0;" parent="1" vertex="1">
          <mxGeometry x="580" y="415" width="60" height="30" as="geometry" />
        </mxCell>
        <mxCell id="iR1kLNIvm_D38_9lqwLG-25" value="" style="endArrow=none;html=1;rounded=0;exitX=1;exitY=0.5;exitDx=0;exitDy=0;entryX=0;entryY=0.5;entryDx=0;entryDy=0;" parent="1" source="iR1kLNIvm_D38_9lqwLG-22" target="U2BK-bpz5eqN0hKOcZLU-23" edge="1">
          <mxGeometry width="50" height="50" relative="1" as="geometry">
            <mxPoint x="645" y="470" as="sourcePoint" />
            <mxPoint x="695" y="420" as="targetPoint" />
          </mxGeometry>
        </mxCell>
        <mxCell id="iR1kLNIvm_D38_9lqwLG-26" value="" style="endArrow=none;html=1;rounded=0;exitX=1;exitY=0.5;exitDx=0;exitDy=0;entryX=0;entryY=0.5;entryDx=0;entryDy=0;" parent="1" source="iR1kLNIvm_D38_9lqwLG-20" target="iR1kLNIvm_D38_9lqwLG-22" edge="1">
          <mxGeometry width="50" height="50" relative="1" as="geometry">
            <mxPoint x="510" y="440" as="sourcePoint" />
            <mxPoint x="560" y="390" as="targetPoint" />
          </mxGeometry>
        </mxCell>
        <mxCell id="iR1kLNIvm_D38_9lqwLG-27" value="&lt;br&gt;" style="endArrow=none;html=1;rounded=0;entryX=0;entryY=0.5;entryDx=0;entryDy=0;exitX=1;exitY=0.5;exitDx=0;exitDy=0;" parent="1" source="U2BK-bpz5eqN0hKOcZLU-9" target="iR1kLNIvm_D38_9lqwLG-20" edge="1">
          <mxGeometry width="50" height="50" relative="1" as="geometry">
            <mxPoint x="425" y="485" as="sourcePoint" />
            <mxPoint x="475" y="435" as="targetPoint" />
          </mxGeometry>
        </mxCell>
        <mxCell id="iR1kLNIvm_D38_9lqwLG-28" value="" style="ellipse;whiteSpace=wrap;html=1;" parent="1" vertex="1">
          <mxGeometry x="650" y="240" width="120" height="80" as="geometry" />
        </mxCell>
        <mxCell id="iR1kLNIvm_D38_9lqwLG-29" value="" style="ellipse;whiteSpace=wrap;html=1;" parent="1" vertex="1">
          <mxGeometry x="480" y="240" width="120" height="80" as="geometry" />
        </mxCell>
        <mxCell id="iR1kLNIvm_D38_9lqwLG-30" value="" style="endArrow=none;html=1;rounded=0;entryX=0.5;entryY=1;entryDx=0;entryDy=0;" parent="1" target="iR1kLNIvm_D38_9lqwLG-28" edge="1">
          <mxGeometry width="50" height="50" relative="1" as="geometry">
            <mxPoint x="635" y="400" as="sourcePoint" />
            <mxPoint x="685" y="350" as="targetPoint" />
          </mxGeometry>
        </mxCell>
        <mxCell id="iR1kLNIvm_D38_9lqwLG-31" value="" style="endArrow=none;html=1;rounded=0;entryX=0.5;entryY=1;entryDx=0;entryDy=0;" parent="1" target="iR1kLNIvm_D38_9lqwLG-29" edge="1">
          <mxGeometry width="50" height="50" relative="1" as="geometry">
            <mxPoint x="570" y="400" as="sourcePoint" />
            <mxPoint x="620" y="350" as="targetPoint" />
          </mxGeometry>
        </mxCell>
        <mxCell id="iR1kLNIvm_D38_9lqwLG-32" value="&lt;font style=&quot;font-size: 17px;&quot;&gt;Vreme&lt;/font&gt;" style="text;strokeColor=none;align=center;fillColor=none;html=1;verticalAlign=middle;whiteSpace=wrap;rounded=0;" parent="1" vertex="1">
          <mxGeometry x="510" y="265" width="60" height="30" as="geometry" />
        </mxCell>
        <mxCell id="iR1kLNIvm_D38_9lqwLG-33" value="&lt;font style=&quot;font-size: 17px;&quot;&gt;Datum&lt;/font&gt;" style="text;strokeColor=none;align=center;fillColor=none;html=1;verticalAlign=middle;whiteSpace=wrap;rounded=0;" parent="1" vertex="1">
          <mxGeometry x="680" y="265" width="60" height="30" as="geometry" />
        </mxCell>
        <mxCell id="iR1kLNIvm_D38_9lqwLG-34" value="" style="ellipse;whiteSpace=wrap;html=1;" parent="1" vertex="1">
          <mxGeometry x="560" y="130" width="120" height="80" as="geometry" />
        </mxCell>
        <mxCell id="iR1kLNIvm_D38_9lqwLG-35" value="" style="endArrow=none;html=1;rounded=0;entryX=0.5;entryY=1;entryDx=0;entryDy=0;" parent="1" target="iR1kLNIvm_D38_9lqwLG-34" edge="1">
          <mxGeometry width="50" height="50" relative="1" as="geometry">
            <mxPoint x="610" y="400" as="sourcePoint" />
            <mxPoint x="660" y="350" as="targetPoint" />
          </mxGeometry>
        </mxCell>
        <mxCell id="iR1kLNIvm_D38_9lqwLG-36" value="&lt;font style=&quot;font-size: 15px;&quot;&gt;Max: 28 termina dnevno&lt;/font&gt;" style="text;strokeColor=none;align=center;fillColor=none;html=1;verticalAlign=middle;whiteSpace=wrap;rounded=0;" parent="1" vertex="1">
          <mxGeometry x="590" y="155" width="60" height="30" as="geometry" />
        </mxCell>
        <mxCell id="iR1kLNIvm_D38_9lqwLG-37" value="&lt;b&gt;&lt;font style=&quot;font-size: 14px;&quot;&gt;(1,N)&lt;/font&gt;&lt;/b&gt;" style="text;strokeColor=none;align=center;fillColor=none;html=1;verticalAlign=middle;whiteSpace=wrap;rounded=0;" parent="1" vertex="1">
          <mxGeometry x="354" y="220" width="60" height="30" as="geometry" />
        </mxCell>
        <mxCell id="iR1kLNIvm_D38_9lqwLG-38" value="&lt;font style=&quot;font-size: 14px;&quot;&gt;&lt;b&gt;(1,1)&lt;/b&gt;&lt;/font&gt;" style="text;html=1;align=center;verticalAlign=middle;resizable=0;points=[];autosize=1;strokeColor=none;fillColor=none;" parent="1" vertex="1">
          <mxGeometry x="360" y="370" width="50" height="30" as="geometry" />
        </mxCell>
        <mxCell id="iR1kLNIvm_D38_9lqwLG-39" value="&lt;b&gt;&lt;font style=&quot;font-size: 14px;&quot;&gt;(1,1)&lt;/font&gt;&lt;/b&gt;" style="text;html=1;align=center;verticalAlign=middle;resizable=0;points=[];autosize=1;strokeColor=none;fillColor=none;" parent="1" vertex="1">
          <mxGeometry x="420" y="425" width="50" height="30" as="geometry" />
        </mxCell>
        <mxCell id="iR1kLNIvm_D38_9lqwLG-40" value="&lt;b&gt;&lt;font style=&quot;font-size: 13px;&quot;&gt;(1,1)&lt;/font&gt;&lt;/b&gt;" style="text;html=1;align=center;verticalAlign=middle;resizable=0;points=[];autosize=1;strokeColor=none;fillColor=none;" parent="1" vertex="1">
          <mxGeometry x="510" y="435" width="50" height="30" as="geometry" />
        </mxCell>
        <mxCell id="iR1kLNIvm_D38_9lqwLG-41" value="&lt;b&gt;(1,1)&lt;/b&gt;" style="text;html=1;align=center;verticalAlign=middle;resizable=0;points=[];autosize=1;strokeColor=none;fillColor=none;" parent="1" vertex="1">
          <mxGeometry x="660" y="425" width="50" height="30" as="geometry" />
        </mxCell>
        <mxCell id="iR1kLNIvm_D38_9lqwLG-42" value="&lt;b&gt;(1,1)&lt;/b&gt;" style="text;html=1;align=center;verticalAlign=middle;resizable=0;points=[];autosize=1;strokeColor=none;fillColor=none;" parent="1" vertex="1">
          <mxGeometry x="785" y="385" width="50" height="30" as="geometry" />
        </mxCell>
        <mxCell id="iR1kLNIvm_D38_9lqwLG-43" value="&lt;b&gt;(1,N)&lt;/b&gt;" style="text;html=1;align=center;verticalAlign=middle;resizable=0;points=[];autosize=1;strokeColor=none;fillColor=none;" parent="1" vertex="1">
          <mxGeometry x="880" y="325" width="50" height="30" as="geometry" />
        </mxCell>
        <mxCell id="iR1kLNIvm_D38_9lqwLG-44" value="&lt;b&gt;(1,N)&lt;/b&gt;" style="text;html=1;align=center;verticalAlign=middle;resizable=0;points=[];autosize=1;strokeColor=none;fillColor=none;" parent="1" vertex="1">
          <mxGeometry x="875" y="175" width="50" height="30" as="geometry" />
        </mxCell>
        <mxCell id="iR1kLNIvm_D38_9lqwLG-47" value="&lt;b&gt;&lt;font style=&quot;font-size: 13px;&quot;&gt;(1,1)&lt;/font&gt;&lt;/b&gt;" style="text;html=1;align=center;verticalAlign=middle;resizable=0;points=[];autosize=1;strokeColor=none;fillColor=none;" parent="1" vertex="1">
          <mxGeometry x="425" y="685" width="50" height="30" as="geometry" />
        </mxCell>
        <mxCell id="iR1kLNIvm_D38_9lqwLG-48" value="&lt;b&gt;&lt;font style=&quot;font-size: 13px;&quot;&gt;(1,1)&lt;/font&gt;&lt;/b&gt;" style="text;html=1;align=center;verticalAlign=middle;resizable=0;points=[];autosize=1;strokeColor=none;fillColor=none;" parent="1" vertex="1">
          <mxGeometry x="840" y="425" width="50" height="30" as="geometry" />
        </mxCell>
        <mxCell id="iR1kLNIvm_D38_9lqwLG-50" value="&lt;b&gt;&lt;font style=&quot;font-size: 14px;&quot;&gt;(1,N)&lt;/font&gt;&lt;/b&gt;" style="text;html=1;align=center;verticalAlign=middle;resizable=0;points=[];autosize=1;strokeColor=none;fillColor=none;" parent="1" vertex="1">
          <mxGeometry x="425" y="740" width="50" height="30" as="geometry" />
        </mxCell>
        <mxCell id="iR1kLNIvm_D38_9lqwLG-51" value="&lt;b&gt;&lt;font style=&quot;font-size: 14px;&quot;&gt;(1,N)&lt;/font&gt;&lt;/b&gt;" style="text;html=1;align=center;verticalAlign=middle;resizable=0;points=[];autosize=1;strokeColor=none;fillColor=none;" parent="1" vertex="1">
          <mxGeometry x="710" y="550" width="50" height="30" as="geometry" />
        </mxCell>
        <mxCell id="iR1kLNIvm_D38_9lqwLG-52" value="&lt;b&gt;&lt;font style=&quot;font-size: 14px;&quot;&gt;(1,1)&lt;/font&gt;&lt;/b&gt;" style="text;html=1;align=center;verticalAlign=middle;resizable=0;points=[];autosize=1;strokeColor=none;fillColor=none;" parent="1" vertex="1">
          <mxGeometry x="365" y="468" width="50" height="30" as="geometry" />
        </mxCell>
        <mxCell id="iR1kLNIvm_D38_9lqwLG-53" value="&lt;b&gt;&lt;font style=&quot;font-size: 13px;&quot;&gt;(1,1)&lt;/font&gt;&lt;/b&gt;" style="text;html=1;align=center;verticalAlign=middle;resizable=0;points=[];autosize=1;strokeColor=none;fillColor=none;" parent="1" vertex="1">
          <mxGeometry x="325" y="670" width="50" height="30" as="geometry" />
        </mxCell>
        <mxCell id="iR1kLNIvm_D38_9lqwLG-54" value="&lt;b&gt;&lt;font style=&quot;font-size: 13px;&quot;&gt;(1,1)&lt;/font&gt;&lt;/b&gt;" style="text;html=1;align=center;verticalAlign=middle;resizable=0;points=[];autosize=1;strokeColor=none;fillColor=none;" parent="1" vertex="1">
          <mxGeometry x="265" y="700" width="50" height="30" as="geometry" />
        </mxCell>
        <mxCell id="iR1kLNIvm_D38_9lqwLG-55" value="&lt;b&gt;&lt;font style=&quot;font-size: 14px;&quot;&gt;(1,1)&lt;/font&gt;&lt;/b&gt;" style="text;html=1;align=center;verticalAlign=middle;resizable=0;points=[];autosize=1;strokeColor=none;fillColor=none;" parent="1" vertex="1">
          <mxGeometry x="140" y="800" width="50" height="30" as="geometry" />
        </mxCell>
        <mxCell id="iR1kLNIvm_D38_9lqwLG-56" value="&lt;b&gt;&lt;font style=&quot;font-size: 13px;&quot;&gt;(1,N)&lt;/font&gt;&lt;/b&gt;" style="text;html=1;align=center;verticalAlign=middle;resizable=0;points=[];autosize=1;strokeColor=none;fillColor=none;" parent="1" vertex="1">
          <mxGeometry x="840" y="555" width="50" height="30" as="geometry" />
        </mxCell>
        <mxCell id="iR1kLNIvm_D38_9lqwLG-57" value="&lt;b&gt;&lt;font style=&quot;font-size: 13px;&quot;&gt;(1,N)&lt;/font&gt;&lt;/b&gt;" style="text;html=1;align=center;verticalAlign=middle;resizable=0;points=[];autosize=1;strokeColor=none;fillColor=none;" parent="1" vertex="1">
          <mxGeometry x="845" y="720" width="50" height="30" as="geometry" />
        </mxCell>
        <mxCell id="iR1kLNIvm_D38_9lqwLG-58" value="&lt;b&gt;&lt;font style=&quot;font-size: 13px;&quot;&gt;(1,1)&lt;/font&gt;&lt;/b&gt;" style="text;html=1;align=center;verticalAlign=middle;resizable=0;points=[];autosize=1;strokeColor=none;fillColor=none;" parent="1" vertex="1">
          <mxGeometry x="845" y="815" width="50" height="30" as="geometry" />
        </mxCell>
        <mxCell id="iR1kLNIvm_D38_9lqwLG-59" value="&lt;b&gt;&lt;font style=&quot;font-size: 13px;&quot;&gt;(1,1)&lt;/font&gt;&lt;/b&gt;" style="text;whiteSpace=wrap;html=1;" parent="1" vertex="1">
          <mxGeometry x="855" y="950" width="60" height="40" as="geometry" />
        </mxCell>
        <mxCell id="P5KohYsV93h53xg6YDMX-1" value="&lt;b&gt;Dekompozicija odabira usluga i zakazivanja termina&lt;/b&gt;" style="text;strokeColor=none;align=center;fillColor=none;html=1;verticalAlign=middle;whiteSpace=wrap;rounded=0;" vertex="1" parent="1">
          <mxGeometry x="230" y="2900" width="400" height="30" as="geometry" />
        </mxCell>
        <mxCell id="P5KohYsV93h53xg6YDMX-2" value="KLIJENT" style="rounded=0;whiteSpace=wrap;html=1;" vertex="1" parent="1">
          <mxGeometry x="555" y="2960" width="120" height="60" as="geometry" />
        </mxCell>
        <mxCell id="P5KohYsV93h53xg6YDMX-3" value="" style="endArrow=classic;html=1;rounded=0;exitX=1;exitY=0.5;exitDx=0;exitDy=0;" edge="1" parent="1" source="P5KohYsV93h53xg6YDMX-2">
          <mxGeometry width="50" height="50" relative="1" as="geometry">
            <mxPoint x="620" y="3190" as="sourcePoint" />
            <mxPoint x="830" y="3020" as="targetPoint" />
            <Array as="points">
              <mxPoint x="830" y="2990" />
            </Array>
          </mxGeometry>
        </mxCell>
        <mxCell id="P5KohYsV93h53xg6YDMX-4" value="" style="endArrow=classic;html=1;rounded=0;" edge="1" parent="1">
          <mxGeometry width="50" height="50" relative="1" as="geometry">
            <mxPoint x="555" y="2990" as="sourcePoint" />
            <mxPoint x="395" y="3020" as="targetPoint" />
            <Array as="points">
              <mxPoint x="555" y="2990" />
              <mxPoint x="395" y="2990" />
            </Array>
          </mxGeometry>
        </mxCell>
        <mxCell id="P5KohYsV93h53xg6YDMX-5" value="" style="endArrow=none;html=1;rounded=0;" edge="1" parent="1">
          <mxGeometry width="50" height="50" relative="1" as="geometry">
            <mxPoint x="350" y="3030" as="sourcePoint" />
            <mxPoint x="450" y="3030" as="targetPoint" />
          </mxGeometry>
        </mxCell>
        <mxCell id="P5KohYsV93h53xg6YDMX-6" value="" style="endArrow=none;html=1;rounded=0;" edge="1" parent="1">
          <mxGeometry width="50" height="50" relative="1" as="geometry">
            <mxPoint x="350" y="3060" as="sourcePoint" />
            <mxPoint x="450" y="3060" as="targetPoint" />
          </mxGeometry>
        </mxCell>
        <mxCell id="P5KohYsV93h53xg6YDMX-7" value="" style="endArrow=none;html=1;rounded=0;" edge="1" parent="1">
          <mxGeometry width="50" height="50" relative="1" as="geometry">
            <mxPoint x="780" y="3030" as="sourcePoint" />
            <mxPoint x="880" y="3030" as="targetPoint" />
          </mxGeometry>
        </mxCell>
        <mxCell id="P5KohYsV93h53xg6YDMX-8" value="" style="endArrow=none;html=1;rounded=0;" edge="1" parent="1">
          <mxGeometry width="50" height="50" relative="1" as="geometry">
            <mxPoint x="780" y="3060" as="sourcePoint" />
            <mxPoint x="880" y="3060" as="targetPoint" />
          </mxGeometry>
        </mxCell>
        <mxCell id="P5KohYsV93h53xg6YDMX-9" value="odabir" style="text;strokeColor=none;align=center;fillColor=none;html=1;verticalAlign=middle;whiteSpace=wrap;rounded=0;" vertex="1" parent="1">
          <mxGeometry x="370" y="3030" width="60" height="30" as="geometry" />
        </mxCell>
        <mxCell id="P5KohYsV93h53xg6YDMX-11" value="odabir" style="text;strokeColor=none;align=center;fillColor=none;html=1;verticalAlign=middle;whiteSpace=wrap;rounded=0;" vertex="1" parent="1">
          <mxGeometry x="800" y="3030" width="60" height="30" as="geometry" />
        </mxCell>
        <mxCell id="P5KohYsV93h53xg6YDMX-12" value="odabir usluge" style="ellipse;whiteSpace=wrap;html=1;" vertex="1" parent="1">
          <mxGeometry x="340" y="3090" width="120" height="40" as="geometry" />
        </mxCell>
        <mxCell id="P5KohYsV93h53xg6YDMX-13" value="odabir datuma" style="ellipse;whiteSpace=wrap;html=1;" vertex="1" parent="1">
          <mxGeometry x="770" y="3090" width="120" height="40" as="geometry" />
        </mxCell>
        <mxCell id="P5KohYsV93h53xg6YDMX-14" value="" style="endArrow=classic;html=1;rounded=0;exitX=0.5;exitY=1;exitDx=0;exitDy=0;entryX=0.5;entryY=0;entryDx=0;entryDy=0;" edge="1" parent="1" source="P5KohYsV93h53xg6YDMX-11" target="P5KohYsV93h53xg6YDMX-13">
          <mxGeometry width="50" height="50" relative="1" as="geometry">
            <mxPoint x="740" y="3290" as="sourcePoint" />
            <mxPoint x="790" y="3240" as="targetPoint" />
          </mxGeometry>
        </mxCell>
        <mxCell id="P5KohYsV93h53xg6YDMX-15" value="" style="endArrow=classic;html=1;rounded=0;exitX=0.5;exitY=1;exitDx=0;exitDy=0;entryX=0.5;entryY=0;entryDx=0;entryDy=0;" edge="1" parent="1" source="P5KohYsV93h53xg6YDMX-9" target="P5KohYsV93h53xg6YDMX-12">
          <mxGeometry width="50" height="50" relative="1" as="geometry">
            <mxPoint x="450" y="3100" as="sourcePoint" />
            <mxPoint x="500" y="3050" as="targetPoint" />
          </mxGeometry>
        </mxCell>
        <mxCell id="P5KohYsV93h53xg6YDMX-16" value="biranje zeljenog termina" style="ellipse;whiteSpace=wrap;html=1;" vertex="1" parent="1">
          <mxGeometry x="770" y="3150" width="120" height="40" as="geometry" />
        </mxCell>
        <mxCell id="P5KohYsV93h53xg6YDMX-17" value="" style="endArrow=classic;html=1;rounded=0;exitX=0.5;exitY=1;exitDx=0;exitDy=0;entryX=0.5;entryY=0;entryDx=0;entryDy=0;" edge="1" parent="1" source="P5KohYsV93h53xg6YDMX-13" target="P5KohYsV93h53xg6YDMX-16">
          <mxGeometry width="50" height="50" relative="1" as="geometry">
            <mxPoint x="740" y="3290" as="sourcePoint" />
            <mxPoint x="790" y="3240" as="targetPoint" />
          </mxGeometry>
        </mxCell>
        <mxCell id="P5KohYsV93h53xg6YDMX-18" value="" style="endArrow=none;html=1;rounded=0;" edge="1" parent="1">
          <mxGeometry width="50" height="50" relative="1" as="geometry">
            <mxPoint x="354" y="3150" as="sourcePoint" />
            <mxPoint x="454" y="3150" as="targetPoint" />
          </mxGeometry>
        </mxCell>
        <mxCell id="P5KohYsV93h53xg6YDMX-19" value="" style="endArrow=none;html=1;rounded=0;" edge="1" parent="1">
          <mxGeometry width="50" height="50" relative="1" as="geometry">
            <mxPoint x="354" y="3180" as="sourcePoint" />
            <mxPoint x="454" y="3180" as="targetPoint" />
          </mxGeometry>
        </mxCell>
        <mxCell id="P5KohYsV93h53xg6YDMX-20" value="biranje usluge po ceni" style="text;strokeColor=none;align=center;fillColor=none;html=1;verticalAlign=middle;whiteSpace=wrap;rounded=0;" vertex="1" parent="1">
          <mxGeometry x="354" y="3150" width="96" height="30" as="geometry" />
        </mxCell>
        <mxCell id="P5KohYsV93h53xg6YDMX-21" value="" style="endArrow=classic;html=1;rounded=0;exitX=0.5;exitY=1;exitDx=0;exitDy=0;" edge="1" parent="1" source="P5KohYsV93h53xg6YDMX-12">
          <mxGeometry width="50" height="50" relative="1" as="geometry">
            <mxPoint x="740" y="3290" as="sourcePoint" />
            <mxPoint x="400" y="3150" as="targetPoint" />
          </mxGeometry>
        </mxCell>
        <mxCell id="P5KohYsV93h53xg6YDMX-22" value="biranje po ceni" style="ellipse;whiteSpace=wrap;html=1;" vertex="1" parent="1">
          <mxGeometry x="340" y="3210" width="120" height="40" as="geometry" />
        </mxCell>
        <mxCell id="P5KohYsV93h53xg6YDMX-23" value="" style="endArrow=classic;html=1;rounded=0;exitX=0.5;exitY=1;exitDx=0;exitDy=0;" edge="1" parent="1" source="P5KohYsV93h53xg6YDMX-20">
          <mxGeometry width="50" height="50" relative="1" as="geometry">
            <mxPoint x="740" y="3290" as="sourcePoint" />
            <mxPoint x="402" y="3210" as="targetPoint" />
          </mxGeometry>
        </mxCell>
        <mxCell id="P5KohYsV93h53xg6YDMX-25" value="" style="endArrow=none;html=1;rounded=0;entryX=0.5;entryY=1;entryDx=0;entryDy=0;" edge="1" parent="1" target="P5KohYsV93h53xg6YDMX-22">
          <mxGeometry width="50" height="50" relative="1" as="geometry">
            <mxPoint x="400" y="3280" as="sourcePoint" />
            <mxPoint x="790" y="3240" as="targetPoint" />
          </mxGeometry>
        </mxCell>
        <mxCell id="P5KohYsV93h53xg6YDMX-26" value="" style="endArrow=none;html=1;rounded=0;" edge="1" parent="1">
          <mxGeometry width="50" height="50" relative="1" as="geometry">
            <mxPoint x="310" y="3280" as="sourcePoint" />
            <mxPoint x="490" y="3280" as="targetPoint" />
          </mxGeometry>
        </mxCell>
        <mxCell id="P5KohYsV93h53xg6YDMX-27" value="" style="endArrow=classic;html=1;rounded=0;" edge="1" parent="1">
          <mxGeometry width="50" height="50" relative="1" as="geometry">
            <mxPoint x="490" y="3280" as="sourcePoint" />
            <mxPoint x="490" y="3320" as="targetPoint" />
          </mxGeometry>
        </mxCell>
        <mxCell id="P5KohYsV93h53xg6YDMX-28" value="" style="endArrow=classic;html=1;rounded=0;" edge="1" parent="1">
          <mxGeometry width="50" height="50" relative="1" as="geometry">
            <mxPoint x="310" y="3280" as="sourcePoint" />
            <mxPoint x="310" y="3320" as="targetPoint" />
          </mxGeometry>
        </mxCell>
        <mxCell id="P5KohYsV93h53xg6YDMX-29" value="skuplja usluga" style="ellipse;whiteSpace=wrap;html=1;" vertex="1" parent="1">
          <mxGeometry x="250" y="3330" width="120" height="30" as="geometry" />
        </mxCell>
        <mxCell id="P5KohYsV93h53xg6YDMX-30" value="jeftinija usluga" style="ellipse;whiteSpace=wrap;html=1;" vertex="1" parent="1">
          <mxGeometry x="430" y="3330" width="120" height="30" as="geometry" />
        </mxCell>
        <mxCell id="P5KohYsV93h53xg6YDMX-31" value="" style="shape=link;html=1;rounded=0;width=36;" edge="1" parent="1">
          <mxGeometry width="100" relative="1" as="geometry">
            <mxPoint x="445" y="3430" as="sourcePoint" />
            <mxPoint x="545" y="3430" as="targetPoint" />
          </mxGeometry>
        </mxCell>
        <mxCell id="P5KohYsV93h53xg6YDMX-33" value="" style="shape=link;html=1;rounded=0;width=36;" edge="1" parent="1">
          <mxGeometry width="100" relative="1" as="geometry">
            <mxPoint x="260" y="3430" as="sourcePoint" />
            <mxPoint x="360" y="3430" as="targetPoint" />
          </mxGeometry>
        </mxCell>
        <mxCell id="P5KohYsV93h53xg6YDMX-34" value="" style="endArrow=classic;html=1;rounded=0;exitX=0.5;exitY=1;exitDx=0;exitDy=0;" edge="1" parent="1" source="P5KohYsV93h53xg6YDMX-30">
          <mxGeometry width="50" height="50" relative="1" as="geometry">
            <mxPoint x="740" y="3490" as="sourcePoint" />
            <mxPoint x="490" y="3410" as="targetPoint" />
          </mxGeometry>
        </mxCell>
        <mxCell id="P5KohYsV93h53xg6YDMX-35" value="" style="endArrow=classic;html=1;rounded=0;exitX=0.5;exitY=1;exitDx=0;exitDy=0;" edge="1" parent="1">
          <mxGeometry width="50" height="50" relative="1" as="geometry">
            <mxPoint x="309" y="3360" as="sourcePoint" />
            <mxPoint x="309" y="3410" as="targetPoint" />
          </mxGeometry>
        </mxCell>
        <mxCell id="P5KohYsV93h53xg6YDMX-36" value="bolji kvalitet" style="text;strokeColor=none;align=center;fillColor=none;html=1;verticalAlign=middle;whiteSpace=wrap;rounded=0;" vertex="1" parent="1">
          <mxGeometry x="250" y="3420" width="120" height="30" as="geometry" />
        </mxCell>
        <mxCell id="P5KohYsV93h53xg6YDMX-38" value="losiji kvalitet" style="text;strokeColor=none;align=center;fillColor=none;html=1;verticalAlign=middle;whiteSpace=wrap;rounded=0;" vertex="1" parent="1">
          <mxGeometry x="450" y="3420" width="90" height="30" as="geometry" />
        </mxCell>
        <mxCell id="P5KohYsV93h53xg6YDMX-39" value="" style="endArrow=classic;html=1;rounded=0;exitX=0.5;exitY=1;exitDx=0;exitDy=0;" edge="1" parent="1" source="P5KohYsV93h53xg6YDMX-16">
          <mxGeometry width="50" height="50" relative="1" as="geometry">
            <mxPoint x="740" y="3390" as="sourcePoint" />
            <mxPoint x="830" y="3250" as="targetPoint" />
          </mxGeometry>
        </mxCell>
        <mxCell id="P5KohYsV93h53xg6YDMX-40" value="" style="endArrow=classic;html=1;rounded=0;" edge="1" parent="1">
          <mxGeometry width="50" height="50" relative="1" as="geometry">
            <mxPoint x="830" y="3250" as="sourcePoint" />
            <mxPoint x="940" y="3310" as="targetPoint" />
            <Array as="points">
              <mxPoint x="940" y="3250" />
            </Array>
          </mxGeometry>
        </mxCell>
        <mxCell id="P5KohYsV93h53xg6YDMX-44" value="" style="endArrow=classic;html=1;rounded=0;" edge="1" parent="1">
          <mxGeometry width="50" height="50" relative="1" as="geometry">
            <mxPoint x="830" y="3250" as="sourcePoint" />
            <mxPoint x="720" y="3310" as="targetPoint" />
            <Array as="points">
              <mxPoint x="830" y="3250" />
              <mxPoint x="720" y="3250" />
            </Array>
          </mxGeometry>
        </mxCell>
        <mxCell id="P5KohYsV93h53xg6YDMX-45" value="" style="shape=link;html=1;rounded=0;width=33;" edge="1" parent="1">
          <mxGeometry width="100" relative="1" as="geometry">
            <mxPoint x="675" y="3330" as="sourcePoint" />
            <mxPoint x="775" y="3330" as="targetPoint" />
          </mxGeometry>
        </mxCell>
        <mxCell id="P5KohYsV93h53xg6YDMX-46" value="" style="shape=link;html=1;rounded=0;width=33;" edge="1" parent="1">
          <mxGeometry width="100" relative="1" as="geometry">
            <mxPoint x="890" y="3329" as="sourcePoint" />
            <mxPoint x="990" y="3329" as="targetPoint" />
          </mxGeometry>
        </mxCell>
        <mxCell id="P5KohYsV93h53xg6YDMX-47" value="zakazivanje" style="text;strokeColor=none;align=center;fillColor=none;html=1;verticalAlign=middle;whiteSpace=wrap;rounded=0;" vertex="1" parent="1">
          <mxGeometry x="695" y="3320" width="60" height="30" as="geometry" />
        </mxCell>
        <mxCell id="P5KohYsV93h53xg6YDMX-48" value="zamena termina" style="text;strokeColor=none;align=center;fillColor=none;html=1;verticalAlign=middle;whiteSpace=wrap;rounded=0;" vertex="1" parent="1">
          <mxGeometry x="890" y="3310" width="110" height="30" as="geometry" />
        </mxCell>
        <mxCell id="P5KohYsV93h53xg6YDMX-49" value="zakazivanje termina" style="ellipse;whiteSpace=wrap;html=1;" vertex="1" parent="1">
          <mxGeometry x="665" y="3380" width="120" height="40" as="geometry" />
        </mxCell>
        <mxCell id="P5KohYsV93h53xg6YDMX-50" value="zamena termina" style="ellipse;whiteSpace=wrap;html=1;" vertex="1" parent="1">
          <mxGeometry x="880" y="3380" width="120" height="40" as="geometry" />
        </mxCell>
        <mxCell id="P5KohYsV93h53xg6YDMX-51" value="" style="endArrow=classic;html=1;rounded=0;exitX=0.5;exitY=1;exitDx=0;exitDy=0;entryX=0.5;entryY=0;entryDx=0;entryDy=0;" edge="1" parent="1" source="P5KohYsV93h53xg6YDMX-47" target="P5KohYsV93h53xg6YDMX-49">
          <mxGeometry width="50" height="50" relative="1" as="geometry">
            <mxPoint x="740" y="3390" as="sourcePoint" />
            <mxPoint x="790" y="3340" as="targetPoint" />
          </mxGeometry>
        </mxCell>
        <mxCell id="P5KohYsV93h53xg6YDMX-52" value="" style="endArrow=classic;html=1;rounded=0;entryX=0.5;entryY=0;entryDx=0;entryDy=0;" edge="1" parent="1" target="P5KohYsV93h53xg6YDMX-50">
          <mxGeometry width="50" height="50" relative="1" as="geometry">
            <mxPoint x="940" y="3350" as="sourcePoint" />
            <mxPoint x="790" y="3340" as="targetPoint" />
          </mxGeometry>
        </mxCell>
        <mxCell id="P5KohYsV93h53xg6YDMX-53" value="" style="endArrow=none;html=1;rounded=0;exitX=0.5;exitY=1;exitDx=0;exitDy=0;" edge="1" parent="1" source="P5KohYsV93h53xg6YDMX-49">
          <mxGeometry width="50" height="50" relative="1" as="geometry">
            <mxPoint x="740" y="3390" as="sourcePoint" />
            <mxPoint x="725" y="3460" as="targetPoint" />
          </mxGeometry>
        </mxCell>
        <mxCell id="P5KohYsV93h53xg6YDMX-54" value="" style="endArrow=none;html=1;rounded=0;exitX=0.5;exitY=1;exitDx=0;exitDy=0;" edge="1" parent="1" source="P5KohYsV93h53xg6YDMX-50">
          <mxGeometry width="50" height="50" relative="1" as="geometry">
            <mxPoint x="740" y="3390" as="sourcePoint" />
            <mxPoint x="940" y="3460" as="targetPoint" />
          </mxGeometry>
        </mxCell>
        <mxCell id="P5KohYsV93h53xg6YDMX-55" value="" style="endArrow=none;html=1;rounded=0;" edge="1" parent="1">
          <mxGeometry width="50" height="50" relative="1" as="geometry">
            <mxPoint x="720" y="3460" as="sourcePoint" />
            <mxPoint x="940" y="3460" as="targetPoint" />
          </mxGeometry>
        </mxCell>
        <mxCell id="P5KohYsV93h53xg6YDMX-56" value="" style="endArrow=classic;html=1;rounded=0;" edge="1" parent="1">
          <mxGeometry width="50" height="50" relative="1" as="geometry">
            <mxPoint x="830" y="3460" as="sourcePoint" />
            <mxPoint x="830" y="3490" as="targetPoint" />
          </mxGeometry>
        </mxCell>
        <mxCell id="P5KohYsV93h53xg6YDMX-57" value="" style="shape=link;html=1;rounded=0;width=59;" edge="1" parent="1">
          <mxGeometry width="100" relative="1" as="geometry">
            <mxPoint x="780" y="3530" as="sourcePoint" />
            <mxPoint x="880" y="3530" as="targetPoint" />
          </mxGeometry>
        </mxCell>
        <mxCell id="P5KohYsV93h53xg6YDMX-58" value="bukiran termin" style="text;strokeColor=none;align=center;fillColor=none;html=1;verticalAlign=middle;whiteSpace=wrap;rounded=0;" vertex="1" parent="1">
          <mxGeometry x="800" y="3520" width="60" height="30" as="geometry" />
        </mxCell>
        <mxCell id="P5KohYsV93h53xg6YDMX-62" value="" style="endArrow=none;html=1;rounded=0;exitX=0.5;exitY=1;exitDx=0;exitDy=0;" edge="1" parent="1" source="P5KohYsV93h53xg6YDMX-38">
          <mxGeometry width="50" height="50" relative="1" as="geometry">
            <mxPoint x="740" y="3590" as="sourcePoint" />
            <mxPoint x="830" y="3640" as="targetPoint" />
            <Array as="points">
              <mxPoint x="495" y="3640" />
            </Array>
          </mxGeometry>
        </mxCell>
        <mxCell id="P5KohYsV93h53xg6YDMX-64" value="" style="endArrow=none;html=1;rounded=0;exitX=0.5;exitY=1;exitDx=0;exitDy=0;" edge="1" parent="1" source="P5KohYsV93h53xg6YDMX-36">
          <mxGeometry width="50" height="50" relative="1" as="geometry">
            <mxPoint x="740" y="3590" as="sourcePoint" />
            <mxPoint x="830" y="3680" as="targetPoint" />
            <Array as="points">
              <mxPoint x="310" y="3680" />
            </Array>
          </mxGeometry>
        </mxCell>
        <mxCell id="P5KohYsV93h53xg6YDMX-65" value="" style="endArrow=none;html=1;rounded=0;" edge="1" parent="1">
          <mxGeometry width="50" height="50" relative="1" as="geometry">
            <mxPoint x="830" y="3740" as="sourcePoint" />
            <mxPoint x="830" y="3560" as="targetPoint" />
          </mxGeometry>
        </mxCell>
        <mxCell id="P5KohYsV93h53xg6YDMX-66" value="" style="endArrow=classic;html=1;rounded=0;" edge="1" parent="1">
          <mxGeometry width="50" height="50" relative="1" as="geometry">
            <mxPoint x="830" y="3560" as="sourcePoint" />
            <mxPoint x="830" y="3740" as="targetPoint" />
          </mxGeometry>
        </mxCell>
        <mxCell id="P5KohYsV93h53xg6YDMX-67" value="podaci o terminu" style="rounded=0;whiteSpace=wrap;html=1;" vertex="1" parent="1">
          <mxGeometry x="770" y="3740" width="120" height="60" as="geometry" />
        </mxCell>
        <mxCell id="P5KohYsV93h53xg6YDMX-68" value="" style="endArrow=classic;html=1;rounded=0;exitX=0.5;exitY=1;exitDx=0;exitDy=0;" edge="1" parent="1" source="P5KohYsV93h53xg6YDMX-67">
          <mxGeometry width="50" height="50" relative="1" as="geometry">
            <mxPoint x="740" y="3690" as="sourcePoint" />
            <mxPoint x="830" y="3840" as="targetPoint" />
          </mxGeometry>
        </mxCell>
        <mxCell id="P5KohYsV93h53xg6YDMX-69" value="izvrsavanje usluge" style="ellipse;whiteSpace=wrap;html=1;" vertex="1" parent="1">
          <mxGeometry x="770" y="3850" width="120" height="50" as="geometry" />
        </mxCell>
        <mxCell id="P5KohYsV93h53xg6YDMX-70" value="&lt;b&gt;Dekompozicija nacina placanja&lt;/b&gt;" style="text;strokeColor=none;align=center;fillColor=none;html=1;verticalAlign=middle;whiteSpace=wrap;rounded=0;" vertex="1" parent="1">
          <mxGeometry x="270" y="3990" width="270" height="30" as="geometry" />
        </mxCell>
        <mxCell id="P5KohYsV93h53xg6YDMX-71" value="" style="rounded=0;whiteSpace=wrap;html=1;" vertex="1" parent="1">
          <mxGeometry x="690" y="4062" width="120" height="60" as="geometry" />
        </mxCell>
        <mxCell id="P5KohYsV93h53xg6YDMX-73" value="" style="shape=link;html=1;rounded=0;width=59;" edge="1" parent="1">
          <mxGeometry width="100" relative="1" as="geometry">
            <mxPoint x="390" y="4150" as="sourcePoint" />
            <mxPoint x="490" y="4150" as="targetPoint" />
          </mxGeometry>
        </mxCell>
        <mxCell id="P5KohYsV93h53xg6YDMX-74" value="" style="shape=link;html=1;rounded=0;width=59;" edge="1" parent="1">
          <mxGeometry width="100" relative="1" as="geometry">
            <mxPoint x="1020" y="4150" as="sourcePoint" />
            <mxPoint x="1120" y="4150" as="targetPoint" />
          </mxGeometry>
        </mxCell>
        <mxCell id="P5KohYsV93h53xg6YDMX-75" value="" style="endArrow=classic;html=1;rounded=0;exitX=1;exitY=0.5;exitDx=0;exitDy=0;" edge="1" parent="1" source="P5KohYsV93h53xg6YDMX-71">
          <mxGeometry width="50" height="50" relative="1" as="geometry">
            <mxPoint x="740" y="4290" as="sourcePoint" />
            <mxPoint x="1070" y="4120" as="targetPoint" />
            <Array as="points">
              <mxPoint x="1070" y="4090" />
            </Array>
          </mxGeometry>
        </mxCell>
        <mxCell id="P5KohYsV93h53xg6YDMX-76" value="" style="endArrow=classic;html=1;rounded=0;exitX=0;exitY=0.5;exitDx=0;exitDy=0;" edge="1" parent="1" source="P5KohYsV93h53xg6YDMX-71">
          <mxGeometry width="50" height="50" relative="1" as="geometry">
            <mxPoint x="740" y="4290" as="sourcePoint" />
            <mxPoint x="440" y="4120" as="targetPoint" />
            <Array as="points">
              <mxPoint x="440" y="4090" />
            </Array>
          </mxGeometry>
        </mxCell>
        <mxCell id="P5KohYsV93h53xg6YDMX-77" value="uplata na racun" style="ellipse;whiteSpace=wrap;html=1;" vertex="1" parent="1">
          <mxGeometry x="380" y="4220" width="120" height="50" as="geometry" />
        </mxCell>
        <mxCell id="P5KohYsV93h53xg6YDMX-78" value="fizicka uplata" style="ellipse;whiteSpace=wrap;html=1;" vertex="1" parent="1">
          <mxGeometry x="700" y="4220" width="120" height="50" as="geometry" />
        </mxCell>
        <mxCell id="P5KohYsV93h53xg6YDMX-79" value="placanje karticom" style="ellipse;whiteSpace=wrap;html=1;" vertex="1" parent="1">
          <mxGeometry x="1010" y="4220" width="120" height="50" as="geometry" />
        </mxCell>
        <mxCell id="P5KohYsV93h53xg6YDMX-80" value="uplata" style="text;strokeColor=none;align=center;fillColor=none;html=1;verticalAlign=middle;whiteSpace=wrap;rounded=0;" vertex="1" parent="1">
          <mxGeometry x="414" y="4140" width="60" height="30" as="geometry" />
        </mxCell>
        <mxCell id="P5KohYsV93h53xg6YDMX-81" value="uplata" style="text;strokeColor=none;align=center;fillColor=none;html=1;verticalAlign=middle;whiteSpace=wrap;rounded=0;" vertex="1" parent="1">
          <mxGeometry x="1040" y="4140" width="60" height="30" as="geometry" />
        </mxCell>
        <mxCell id="P5KohYsV93h53xg6YDMX-84" value="" style="shape=link;html=1;rounded=0;width=42;" edge="1" parent="1">
          <mxGeometry width="100" relative="1" as="geometry">
            <mxPoint x="390" y="4320" as="sourcePoint" />
            <mxPoint x="490" y="4320" as="targetPoint" />
          </mxGeometry>
        </mxCell>
        <mxCell id="P5KohYsV93h53xg6YDMX-85" value="" style="shape=link;html=1;rounded=0;width=42;" edge="1" parent="1">
          <mxGeometry width="100" relative="1" as="geometry">
            <mxPoint x="700" y="4320" as="sourcePoint" />
            <mxPoint x="800" y="4320" as="targetPoint" />
          </mxGeometry>
        </mxCell>
        <mxCell id="P5KohYsV93h53xg6YDMX-86" value="" style="shape=link;html=1;rounded=0;width=42;" edge="1" parent="1">
          <mxGeometry width="100" relative="1" as="geometry">
            <mxPoint x="1010" y="4320" as="sourcePoint" />
            <mxPoint x="1110" y="4320" as="targetPoint" />
          </mxGeometry>
        </mxCell>
        <mxCell id="P5KohYsV93h53xg6YDMX-87" value="odabir valute" style="text;strokeColor=none;align=center;fillColor=none;html=1;verticalAlign=middle;whiteSpace=wrap;rounded=0;" vertex="1" parent="1">
          <mxGeometry x="410" y="4310" width="60" height="30" as="geometry" />
        </mxCell>
        <mxCell id="P5KohYsV93h53xg6YDMX-90" value="obavestenje" style="text;strokeColor=none;align=center;fillColor=none;html=1;verticalAlign=middle;whiteSpace=wrap;rounded=0;" vertex="1" parent="1">
          <mxGeometry x="1030" y="4310" width="60" height="30" as="geometry" />
        </mxCell>
        <mxCell id="P5KohYsV93h53xg6YDMX-91" value="uspesna uplata" style="ellipse;whiteSpace=wrap;html=1;" vertex="1" parent="1">
          <mxGeometry x="925" y="4380" width="120" height="50" as="geometry" />
        </mxCell>
        <mxCell id="P5KohYsV93h53xg6YDMX-92" value="neuspesna uplata" style="ellipse;whiteSpace=wrap;html=1;" vertex="1" parent="1">
          <mxGeometry x="1130" y="4380" width="120" height="50" as="geometry" />
        </mxCell>
        <mxCell id="P5KohYsV93h53xg6YDMX-93" value="izdavanje fakture/racuna" style="ellipse;whiteSpace=wrap;html=1;" vertex="1" parent="1">
          <mxGeometry x="690" y="4380" width="120" height="50" as="geometry" />
        </mxCell>
        <mxCell id="P5KohYsV93h53xg6YDMX-94" value="valuta odabir" style="ellipse;whiteSpace=wrap;html=1;" vertex="1" parent="1">
          <mxGeometry x="384" y="4380" width="120" height="50" as="geometry" />
        </mxCell>
        <mxCell id="P5KohYsV93h53xg6YDMX-96" value="potpisivanje fakture/racuna" style="text;strokeColor=none;align=center;fillColor=none;html=1;verticalAlign=middle;whiteSpace=wrap;rounded=0;" vertex="1" parent="1">
          <mxGeometry x="670" y="4310" width="160" height="30" as="geometry" />
        </mxCell>
        <mxCell id="P5KohYsV93h53xg6YDMX-97" value="" style="shape=link;html=1;rounded=0;width=48;" edge="1" parent="1">
          <mxGeometry width="100" relative="1" as="geometry">
            <mxPoint x="1150" y="4244.5" as="sourcePoint" />
            <mxPoint x="1250" y="4244.5" as="targetPoint" />
          </mxGeometry>
        </mxCell>
        <mxCell id="P5KohYsV93h53xg6YDMX-98" value="pokusajte ponovo" style="text;strokeColor=none;align=center;fillColor=none;html=1;verticalAlign=middle;whiteSpace=wrap;rounded=1;" vertex="1" parent="1">
          <mxGeometry x="1170" y="4230" width="60" height="30" as="geometry" />
        </mxCell>
        <mxCell id="P5KohYsV93h53xg6YDMX-99" value="" style="endArrow=classic;html=1;rounded=0;exitX=1;exitY=0.5;exitDx=0;exitDy=0;" edge="1" parent="1" source="P5KohYsV93h53xg6YDMX-92">
          <mxGeometry width="50" height="50" relative="1" as="geometry">
            <mxPoint x="760" y="4390" as="sourcePoint" />
            <mxPoint x="1250" y="4250" as="targetPoint" />
            <Array as="points">
              <mxPoint x="1290" y="4405" />
              <mxPoint x="1290" y="4320" />
              <mxPoint x="1290" y="4250" />
            </Array>
          </mxGeometry>
        </mxCell>
        <mxCell id="P5KohYsV93h53xg6YDMX-100" value="" style="shape=link;html=1;rounded=0;width=48;" edge="1" parent="1">
          <mxGeometry width="100" relative="1" as="geometry">
            <mxPoint x="1010" y="4510" as="sourcePoint" />
            <mxPoint x="1110" y="4510" as="targetPoint" />
          </mxGeometry>
        </mxCell>
        <mxCell id="P5KohYsV93h53xg6YDMX-101" value="" style="shape=link;html=1;rounded=0;width=48;" edge="1" parent="1">
          <mxGeometry width="100" relative="1" as="geometry">
            <mxPoint x="395" y="4510" as="sourcePoint" />
            <mxPoint x="495" y="4510" as="targetPoint" />
          </mxGeometry>
        </mxCell>
        <mxCell id="P5KohYsV93h53xg6YDMX-102" value="potvrda placanja" style="text;strokeColor=none;align=center;fillColor=none;html=1;verticalAlign=middle;whiteSpace=wrap;rounded=0;" vertex="1" parent="1">
          <mxGeometry x="390" y="4500" width="110" height="30" as="geometry" />
        </mxCell>
        <mxCell id="P5KohYsV93h53xg6YDMX-103" value="potvrda uplate" style="text;strokeColor=none;align=center;fillColor=none;html=1;verticalAlign=middle;whiteSpace=wrap;rounded=0;" vertex="1" parent="1">
          <mxGeometry x="1010" y="4500" width="100" height="30" as="geometry" />
        </mxCell>
        <mxCell id="P5KohYsV93h53xg6YDMX-104" value="slanje fakture" style="ellipse;whiteSpace=wrap;html=1;" vertex="1" parent="1">
          <mxGeometry x="384" y="4590" width="120" height="50" as="geometry" />
        </mxCell>
        <mxCell id="P5KohYsV93h53xg6YDMX-105" value="nacin placanja" style="rounded=0;whiteSpace=wrap;html=1;" vertex="1" parent="1">
          <mxGeometry x="695" y="4690" width="120" height="60" as="geometry" />
        </mxCell>
        <mxCell id="P5KohYsV93h53xg6YDMX-106" value="racun" style="ellipse;whiteSpace=wrap;html=1;" vertex="1" parent="1">
          <mxGeometry x="695" y="4790" width="120" height="50" as="geometry" />
        </mxCell>
        <mxCell id="P5KohYsV93h53xg6YDMX-107" value="Klijent" style="text;strokeColor=none;align=center;fillColor=none;html=1;verticalAlign=middle;whiteSpace=wrap;rounded=0;" vertex="1" parent="1">
          <mxGeometry x="720" y="4077" width="60" height="30" as="geometry" />
        </mxCell>
        <mxCell id="P5KohYsV93h53xg6YDMX-108" value="&lt;b&gt;Dekompozicija prijave korisnika&lt;/b&gt;" style="text;strokeColor=none;align=center;fillColor=none;html=1;verticalAlign=middle;whiteSpace=wrap;rounded=0;" vertex="1" parent="1">
          <mxGeometry x="390" y="4900" width="240" height="30" as="geometry" />
        </mxCell>
        <mxCell id="P5KohYsV93h53xg6YDMX-109" value="korisnik" style="rounded=0;whiteSpace=wrap;html=1;" vertex="1" parent="1">
          <mxGeometry x="695" y="4970" width="120" height="60" as="geometry" />
        </mxCell>
        <mxCell id="P5KohYsV93h53xg6YDMX-110" value="" style="shape=link;html=1;rounded=0;width=40;" edge="1" parent="1">
          <mxGeometry width="100" relative="1" as="geometry">
            <mxPoint x="705" y="5070" as="sourcePoint" />
            <mxPoint x="805" y="5070" as="targetPoint" />
          </mxGeometry>
        </mxCell>
        <mxCell id="P5KohYsV93h53xg6YDMX-111" value="pristupanje" style="text;strokeColor=none;align=center;fillColor=none;html=1;verticalAlign=middle;whiteSpace=wrap;rounded=0;" vertex="1" parent="1">
          <mxGeometry x="725" y="5050" width="60" height="30" as="geometry" />
        </mxCell>
        <mxCell id="P5KohYsV93h53xg6YDMX-114" value="pristup aplikaciji" style="ellipse;whiteSpace=wrap;html=1;" vertex="1" parent="1">
          <mxGeometry x="695" y="5130" width="120" height="50" as="geometry" />
        </mxCell>
        <mxCell id="P5KohYsV93h53xg6YDMX-115" value="" style="shape=link;html=1;rounded=0;width=44;" edge="1" parent="1">
          <mxGeometry width="100" relative="1" as="geometry">
            <mxPoint x="700" y="5240" as="sourcePoint" />
            <mxPoint x="800" y="5240" as="targetPoint" />
          </mxGeometry>
        </mxCell>
        <mxCell id="P5KohYsV93h53xg6YDMX-116" value="unos podataka" style="text;strokeColor=none;align=center;fillColor=none;html=1;verticalAlign=middle;whiteSpace=wrap;rounded=0;" vertex="1" parent="1">
          <mxGeometry x="720" y="5230" width="60" height="30" as="geometry" />
        </mxCell>
        <mxCell id="P5KohYsV93h53xg6YDMX-117" value="unos za prijavu" style="ellipse;whiteSpace=wrap;html=1;" vertex="1" parent="1">
          <mxGeometry x="690" y="5300" width="120" height="60" as="geometry" />
        </mxCell>
        <mxCell id="P5KohYsV93h53xg6YDMX-118" value="" style="shape=link;html=1;rounded=0;width=46;" edge="1" parent="1">
          <mxGeometry width="100" relative="1" as="geometry">
            <mxPoint x="700" y="5420" as="sourcePoint" />
            <mxPoint x="800" y="5420" as="targetPoint" />
          </mxGeometry>
        </mxCell>
        <mxCell id="P5KohYsV93h53xg6YDMX-119" value="provera" style="text;strokeColor=none;align=center;fillColor=none;html=1;verticalAlign=middle;whiteSpace=wrap;rounded=0;" vertex="1" parent="1">
          <mxGeometry x="720" y="5410" width="60" height="30" as="geometry" />
        </mxCell>
        <mxCell id="P5KohYsV93h53xg6YDMX-120" value="provera podataka" style="ellipse;whiteSpace=wrap;html=1;" vertex="1" parent="1">
          <mxGeometry x="690" y="5510" width="120" height="50" as="geometry" />
        </mxCell>
        <mxCell id="P5KohYsV93h53xg6YDMX-121" value="Autentifikacija korisnika" style="ellipse;whiteSpace=wrap;html=1;" vertex="1" parent="1">
          <mxGeometry x="690" y="5590" width="120" height="50" as="geometry" />
        </mxCell>
        <mxCell id="P5KohYsV93h53xg6YDMX-122" value="pristupanje nalogu" style="ellipse;whiteSpace=wrap;html=1;" vertex="1" parent="1">
          <mxGeometry x="690" y="5720" width="120" height="60" as="geometry" />
        </mxCell>
        <mxCell id="P5KohYsV93h53xg6YDMX-123" value="pristup aplikaciji" style="rounded=0;whiteSpace=wrap;html=1;" vertex="1" parent="1">
          <mxGeometry x="690" y="5830" width="120" height="60" as="geometry" />
        </mxCell>
        <mxCell id="P5KohYsV93h53xg6YDMX-124" value="uspesna prijava" style="ellipse;whiteSpace=wrap;html=1;" vertex="1" parent="1">
          <mxGeometry x="690" y="5920" width="120" height="50" as="geometry" />
        </mxCell>
        <mxCell id="P5KohYsV93h53xg6YDMX-125" value="" style="shape=link;html=1;rounded=0;width=46;" edge="1" parent="1">
          <mxGeometry width="100" relative="1" as="geometry">
            <mxPoint x="910" y="5240" as="sourcePoint" />
            <mxPoint x="1010" y="5240" as="targetPoint" />
          </mxGeometry>
        </mxCell>
        <mxCell id="P5KohYsV93h53xg6YDMX-126" value="" style="shape=link;html=1;rounded=0;width=39;" edge="1" parent="1">
          <mxGeometry width="100" relative="1" as="geometry">
            <mxPoint x="910" y="5130" as="sourcePoint" />
            <mxPoint x="1010" y="5130" as="targetPoint" />
          </mxGeometry>
        </mxCell>
        <mxCell id="P5KohYsV93h53xg6YDMX-127" value="" style="shape=link;html=1;rounded=0;width=33;" edge="1" parent="1">
          <mxGeometry width="100" relative="1" as="geometry">
            <mxPoint x="910" y="5470" as="sourcePoint" />
            <mxPoint x="1010" y="5470" as="targetPoint" />
          </mxGeometry>
        </mxCell>
        <mxCell id="P5KohYsV93h53xg6YDMX-128" value="unos" style="text;strokeColor=none;align=center;fillColor=none;html=1;verticalAlign=middle;whiteSpace=wrap;rounded=0;" vertex="1" parent="1">
          <mxGeometry x="930" y="5110" width="60" height="30" as="geometry" />
        </mxCell>
        <mxCell id="P5KohYsV93h53xg6YDMX-129" value="unos" style="text;strokeColor=none;align=center;fillColor=none;html=1;verticalAlign=middle;whiteSpace=wrap;rounded=0;" vertex="1" parent="1">
          <mxGeometry x="930" y="5230" width="60" height="30" as="geometry" />
        </mxCell>
        <mxCell id="P5KohYsV93h53xg6YDMX-130" value="provera" style="text;strokeColor=none;align=center;fillColor=none;html=1;verticalAlign=middle;whiteSpace=wrap;rounded=0;" vertex="1" parent="1">
          <mxGeometry x="930" y="5460" width="60" height="30" as="geometry" />
        </mxCell>
        <mxCell id="P5KohYsV93h53xg6YDMX-132" value="unos korisnickog imena" style="ellipse;whiteSpace=wrap;html=1;" vertex="1" parent="1">
          <mxGeometry x="1090" y="5097.5" width="120" height="55" as="geometry" />
        </mxCell>
        <mxCell id="P5KohYsV93h53xg6YDMX-133" value="unos lozinke" style="ellipse;whiteSpace=wrap;html=1;" vertex="1" parent="1">
          <mxGeometry x="1090" y="5217.5" width="120" height="55" as="geometry" />
        </mxCell>
        <mxCell id="P5KohYsV93h53xg6YDMX-135" value="" style="shape=link;html=1;rounded=0;width=35;" edge="1" parent="1">
          <mxGeometry width="100" relative="1" as="geometry">
            <mxPoint x="910" y="5614.5" as="sourcePoint" />
            <mxPoint x="1010" y="5614.5" as="targetPoint" />
          </mxGeometry>
        </mxCell>
        <mxCell id="P5KohYsV93h53xg6YDMX-136" value="ponovo unesite sifru" style="text;strokeColor=none;align=center;fillColor=none;html=1;verticalAlign=middle;whiteSpace=wrap;rounded=0;" vertex="1" parent="1">
          <mxGeometry x="920" y="5600" width="80" height="30" as="geometry" />
        </mxCell>
        <mxCell id="P5KohYsV93h53xg6YDMX-137" value="pogresan unos" style="ellipse;whiteSpace=wrap;html=1;" vertex="1" parent="1">
          <mxGeometry x="1045" y="5590" width="110" height="50" as="geometry" />
        </mxCell>
        <mxCell id="P5KohYsV93h53xg6YDMX-138" value="mogucnost resetovanja lozinke" style="ellipse;whiteSpace=wrap;html=1;" vertex="1" parent="1">
          <mxGeometry x="905" y="5720" width="120" height="60" as="geometry" />
        </mxCell>
        <mxCell id="P5KohYsV93h53xg6YDMX-139" value="" style="endArrow=classic;html=1;rounded=0;entryX=0.5;entryY=0;entryDx=0;entryDy=0;" edge="1" parent="1" target="P5KohYsV93h53xg6YDMX-77">
          <mxGeometry width="50" height="50" relative="1" as="geometry">
            <mxPoint x="440" y="4180" as="sourcePoint" />
            <mxPoint x="490" y="4130" as="targetPoint" />
          </mxGeometry>
        </mxCell>
        <mxCell id="P5KohYsV93h53xg6YDMX-140" value="" style="endArrow=classic;html=1;rounded=0;" edge="1" parent="1">
          <mxGeometry width="50" height="50" relative="1" as="geometry">
            <mxPoint x="440" y="4270" as="sourcePoint" />
            <mxPoint x="440" y="4300" as="targetPoint" />
          </mxGeometry>
        </mxCell>
        <mxCell id="P5KohYsV93h53xg6YDMX-141" value="" style="endArrow=classic;html=1;rounded=0;" edge="1" parent="1">
          <mxGeometry width="50" height="50" relative="1" as="geometry">
            <mxPoint x="440" y="4340" as="sourcePoint" />
            <mxPoint x="440" y="4380" as="targetPoint" />
          </mxGeometry>
        </mxCell>
        <mxCell id="P5KohYsV93h53xg6YDMX-142" value="" style="endArrow=classic;html=1;rounded=0;entryX=0.5;entryY=0;entryDx=0;entryDy=0;" edge="1" parent="1" target="P5KohYsV93h53xg6YDMX-79">
          <mxGeometry width="50" height="50" relative="1" as="geometry">
            <mxPoint x="1070" y="4180" as="sourcePoint" />
            <mxPoint x="1120" y="4130" as="targetPoint" />
          </mxGeometry>
        </mxCell>
        <mxCell id="P5KohYsV93h53xg6YDMX-143" value="" style="endArrow=classic;html=1;rounded=0;" edge="1" parent="1">
          <mxGeometry width="50" height="50" relative="1" as="geometry">
            <mxPoint x="1070" y="4270" as="sourcePoint" />
            <mxPoint x="1070" y="4300" as="targetPoint" />
          </mxGeometry>
        </mxCell>
        <mxCell id="P5KohYsV93h53xg6YDMX-144" value="" style="endArrow=classic;html=1;rounded=0;entryX=0.443;entryY=-0.064;entryDx=0;entryDy=0;entryPerimeter=0;" edge="1" parent="1" target="P5KohYsV93h53xg6YDMX-78">
          <mxGeometry width="50" height="50" relative="1" as="geometry">
            <mxPoint x="755" y="4122" as="sourcePoint" />
            <mxPoint x="805" y="4072" as="targetPoint" />
          </mxGeometry>
        </mxCell>
        <mxCell id="P5KohYsV93h53xg6YDMX-145" value="" style="endArrow=classic;html=1;rounded=0;" edge="1" parent="1">
          <mxGeometry width="50" height="50" relative="1" as="geometry">
            <mxPoint x="755" y="4270" as="sourcePoint" />
            <mxPoint x="755" y="4300" as="targetPoint" />
          </mxGeometry>
        </mxCell>
        <mxCell id="P5KohYsV93h53xg6YDMX-146" value="" style="endArrow=classic;html=1;rounded=0;" edge="1" parent="1">
          <mxGeometry width="50" height="50" relative="1" as="geometry">
            <mxPoint x="440" y="4430" as="sourcePoint" />
            <mxPoint x="440" y="4490" as="targetPoint" />
          </mxGeometry>
        </mxCell>
        <mxCell id="P5KohYsV93h53xg6YDMX-147" value="" style="endArrow=classic;html=1;rounded=0;entryX=0.5;entryY=0;entryDx=0;entryDy=0;exitX=0.5;exitY=1;exitDx=0;exitDy=0;" edge="1" parent="1" source="P5KohYsV93h53xg6YDMX-102" target="P5KohYsV93h53xg6YDMX-104">
          <mxGeometry width="50" height="50" relative="1" as="geometry">
            <mxPoint x="440" y="4540" as="sourcePoint" />
            <mxPoint x="490" y="4490" as="targetPoint" />
          </mxGeometry>
        </mxCell>
        <mxCell id="P5KohYsV93h53xg6YDMX-148" value="" style="endArrow=classic;html=1;rounded=0;entryX=0.56;entryY=-0.016;entryDx=0;entryDy=0;entryPerimeter=0;exitX=0.55;exitY=1.107;exitDx=0;exitDy=0;exitPerimeter=0;" edge="1" parent="1" source="P5KohYsV93h53xg6YDMX-96" target="P5KohYsV93h53xg6YDMX-93">
          <mxGeometry width="50" height="50" relative="1" as="geometry">
            <mxPoint x="755" y="4340" as="sourcePoint" />
            <mxPoint x="750" y="4380" as="targetPoint" />
          </mxGeometry>
        </mxCell>
        <mxCell id="P5KohYsV93h53xg6YDMX-150" value="" style="endArrow=classic;html=1;rounded=0;entryX=0.5;entryY=0;entryDx=0;entryDy=0;" edge="1" parent="1" target="P5KohYsV93h53xg6YDMX-105">
          <mxGeometry width="50" height="50" relative="1" as="geometry">
            <mxPoint x="755" y="4430" as="sourcePoint" />
            <mxPoint x="805" y="4380" as="targetPoint" />
          </mxGeometry>
        </mxCell>
        <mxCell id="P5KohYsV93h53xg6YDMX-151" value="" style="endArrow=none;html=1;rounded=0;" edge="1" parent="1">
          <mxGeometry width="50" height="50" relative="1" as="geometry">
            <mxPoint x="1060" y="4540" as="sourcePoint" />
            <mxPoint x="1060" y="4620" as="targetPoint" />
          </mxGeometry>
        </mxCell>
        <mxCell id="P5KohYsV93h53xg6YDMX-152" value="" style="endArrow=none;html=1;rounded=0;" edge="1" parent="1">
          <mxGeometry width="50" height="50" relative="1" as="geometry">
            <mxPoint x="504" y="4620" as="sourcePoint" />
            <mxPoint x="1060" y="4620" as="targetPoint" />
          </mxGeometry>
        </mxCell>
        <mxCell id="P5KohYsV93h53xg6YDMX-153" value="" style="endArrow=classic;html=1;rounded=0;entryX=0.5;entryY=0;entryDx=0;entryDy=0;" edge="1" parent="1" target="P5KohYsV93h53xg6YDMX-106">
          <mxGeometry width="50" height="50" relative="1" as="geometry">
            <mxPoint x="755" y="4750" as="sourcePoint" />
            <mxPoint x="805" y="4700" as="targetPoint" />
          </mxGeometry>
        </mxCell>
        <mxCell id="P5KohYsV93h53xg6YDMX-154" value="" style="endArrow=classic;startArrow=classic;html=1;rounded=0;entryX=0.5;entryY=0;entryDx=0;entryDy=0;" edge="1" parent="1" target="P5KohYsV93h53xg6YDMX-92">
          <mxGeometry width="50" height="50" relative="1" as="geometry">
            <mxPoint x="980" y="4380" as="sourcePoint" />
            <mxPoint x="1030" y="4330" as="targetPoint" />
            <Array as="points">
              <mxPoint x="980" y="4360" />
              <mxPoint x="1070" y="4360" />
              <mxPoint x="1190" y="4360" />
            </Array>
          </mxGeometry>
        </mxCell>
        <mxCell id="P5KohYsV93h53xg6YDMX-155" value="" style="endArrow=classic;html=1;rounded=0;" edge="1" parent="1">
          <mxGeometry width="50" height="50" relative="1" as="geometry">
            <mxPoint x="1070" y="4340" as="sourcePoint" />
            <mxPoint x="1070" y="4360" as="targetPoint" />
          </mxGeometry>
        </mxCell>
        <mxCell id="P5KohYsV93h53xg6YDMX-156" value="" style="endArrow=classic;html=1;rounded=0;" edge="1" parent="1">
          <mxGeometry width="50" height="50" relative="1" as="geometry">
            <mxPoint x="980" y="4430" as="sourcePoint" />
            <mxPoint x="1050" y="4490" as="targetPoint" />
            <Array as="points">
              <mxPoint x="980" y="4450" />
              <mxPoint x="1050" y="4450" />
            </Array>
          </mxGeometry>
        </mxCell>
        <mxCell id="P5KohYsV93h53xg6YDMX-157" value="" style="endArrow=classic;html=1;rounded=0;" edge="1" parent="1">
          <mxGeometry width="50" height="50" relative="1" as="geometry">
            <mxPoint x="755" y="5360" as="sourcePoint" />
            <mxPoint x="755" y="5400" as="targetPoint" />
          </mxGeometry>
        </mxCell>
        <mxCell id="P5KohYsV93h53xg6YDMX-158" value="" style="endArrow=classic;html=1;rounded=0;entryX=0.56;entryY=0;entryDx=0;entryDy=0;entryPerimeter=0;" edge="1" parent="1" target="P5KohYsV93h53xg6YDMX-117">
          <mxGeometry width="50" height="50" relative="1" as="geometry">
            <mxPoint x="755" y="5261" as="sourcePoint" />
            <mxPoint x="805" y="5211" as="targetPoint" />
          </mxGeometry>
        </mxCell>
        <mxCell id="P5KohYsV93h53xg6YDMX-159" value="" style="endArrow=classic;html=1;rounded=0;" edge="1" parent="1">
          <mxGeometry width="50" height="50" relative="1" as="geometry">
            <mxPoint x="755" y="5180" as="sourcePoint" />
            <mxPoint x="755" y="5220" as="targetPoint" />
          </mxGeometry>
        </mxCell>
        <mxCell id="P5KohYsV93h53xg6YDMX-160" value="" style="endArrow=classic;html=1;rounded=0;entryX=0.5;entryY=0;entryDx=0;entryDy=0;" edge="1" parent="1" target="P5KohYsV93h53xg6YDMX-114">
          <mxGeometry width="50" height="50" relative="1" as="geometry">
            <mxPoint x="755" y="5097.5" as="sourcePoint" />
            <mxPoint x="805" y="5047.5" as="targetPoint" />
          </mxGeometry>
        </mxCell>
        <mxCell id="P5KohYsV93h53xg6YDMX-161" value="" style="endArrow=classic;html=1;rounded=0;" edge="1" parent="1">
          <mxGeometry width="50" height="50" relative="1" as="geometry">
            <mxPoint x="755" y="5030" as="sourcePoint" />
            <mxPoint x="755" y="5050" as="targetPoint" />
          </mxGeometry>
        </mxCell>
        <mxCell id="P5KohYsV93h53xg6YDMX-162" value="" style="endArrow=classic;html=1;rounded=0;entryX=0.5;entryY=0;entryDx=0;entryDy=0;" edge="1" parent="1" target="P5KohYsV93h53xg6YDMX-124">
          <mxGeometry width="50" height="50" relative="1" as="geometry">
            <mxPoint x="750" y="5890" as="sourcePoint" />
            <mxPoint x="800" y="5840" as="targetPoint" />
          </mxGeometry>
        </mxCell>
        <mxCell id="P5KohYsV93h53xg6YDMX-163" value="" style="endArrow=classic;html=1;rounded=0;entryX=0.5;entryY=0;entryDx=0;entryDy=0;" edge="1" parent="1" target="P5KohYsV93h53xg6YDMX-123">
          <mxGeometry width="50" height="50" relative="1" as="geometry">
            <mxPoint x="750" y="5780" as="sourcePoint" />
            <mxPoint x="800" y="5730" as="targetPoint" />
          </mxGeometry>
        </mxCell>
        <mxCell id="P5KohYsV93h53xg6YDMX-164" value="" style="endArrow=classic;html=1;rounded=0;entryX=0.5;entryY=0;entryDx=0;entryDy=0;" edge="1" parent="1" target="P5KohYsV93h53xg6YDMX-122">
          <mxGeometry width="50" height="50" relative="1" as="geometry">
            <mxPoint x="750" y="5640" as="sourcePoint" />
            <mxPoint x="800" y="5590" as="targetPoint" />
          </mxGeometry>
        </mxCell>
        <mxCell id="P5KohYsV93h53xg6YDMX-165" value="" style="endArrow=classic;html=1;rounded=0;entryX=0.5;entryY=0;entryDx=0;entryDy=0;" edge="1" parent="1" target="P5KohYsV93h53xg6YDMX-121">
          <mxGeometry width="50" height="50" relative="1" as="geometry">
            <mxPoint x="750" y="5560" as="sourcePoint" />
            <mxPoint x="800" y="5510" as="targetPoint" />
          </mxGeometry>
        </mxCell>
        <mxCell id="P5KohYsV93h53xg6YDMX-166" value="" style="endArrow=classic;html=1;rounded=0;entryX=0.5;entryY=0;entryDx=0;entryDy=0;" edge="1" parent="1" target="P5KohYsV93h53xg6YDMX-120">
          <mxGeometry width="50" height="50" relative="1" as="geometry">
            <mxPoint x="750" y="5450" as="sourcePoint" />
            <mxPoint x="805" y="5420" as="targetPoint" />
          </mxGeometry>
        </mxCell>
        <mxCell id="P5KohYsV93h53xg6YDMX-167" value="" style="endArrow=classic;html=1;rounded=0;" edge="1" parent="1">
          <mxGeometry width="50" height="50" relative="1" as="geometry">
            <mxPoint x="810" y="5620" as="sourcePoint" />
            <mxPoint x="910" y="5620" as="targetPoint" />
          </mxGeometry>
        </mxCell>
        <mxCell id="P5KohYsV93h53xg6YDMX-168" value="" style="endArrow=classic;html=1;rounded=0;entryX=0;entryY=0.5;entryDx=0;entryDy=0;" edge="1" parent="1" target="P5KohYsV93h53xg6YDMX-137">
          <mxGeometry width="50" height="50" relative="1" as="geometry">
            <mxPoint x="1010" y="5615" as="sourcePoint" />
            <mxPoint x="1060" y="5570" as="targetPoint" />
          </mxGeometry>
        </mxCell>
        <mxCell id="P5KohYsV93h53xg6YDMX-169" value="" style="endArrow=classic;html=1;rounded=0;entryX=0.5;entryY=0;entryDx=0;entryDy=0;" edge="1" parent="1" target="P5KohYsV93h53xg6YDMX-138">
          <mxGeometry width="50" height="50" relative="1" as="geometry">
            <mxPoint x="1105" y="5640" as="sourcePoint" />
            <mxPoint x="1155" y="5590" as="targetPoint" />
            <Array as="points">
              <mxPoint x="1105" y="5690" />
              <mxPoint x="965" y="5690" />
            </Array>
          </mxGeometry>
        </mxCell>
        <mxCell id="P5KohYsV93h53xg6YDMX-170" value="" style="endArrow=classic;html=1;rounded=0;" edge="1" parent="1">
          <mxGeometry width="50" height="50" relative="1" as="geometry">
            <mxPoint x="905" y="5750" as="sourcePoint" />
            <mxPoint x="750" y="5700" as="targetPoint" />
            <Array as="points">
              <mxPoint x="880" y="5750" />
              <mxPoint x="840" y="5700" />
            </Array>
          </mxGeometry>
        </mxCell>
        <mxCell id="P5KohYsV93h53xg6YDMX-171" value="" style="endArrow=classic;html=1;rounded=0;" edge="1" parent="1">
          <mxGeometry width="50" height="50" relative="1" as="geometry">
            <mxPoint x="910" y="5470" as="sourcePoint" />
            <mxPoint x="750" y="5470" as="targetPoint" />
          </mxGeometry>
        </mxCell>
        <mxCell id="P5KohYsV93h53xg6YDMX-172" value="" style="endArrow=classic;html=1;rounded=0;entryX=1;entryY=0.5;entryDx=0;entryDy=0;" edge="1" parent="1" target="P5KohYsV93h53xg6YDMX-117">
          <mxGeometry width="50" height="50" relative="1" as="geometry">
            <mxPoint x="905" y="5240" as="sourcePoint" />
            <mxPoint x="955" y="5190" as="targetPoint" />
            <Array as="points">
              <mxPoint x="840" y="5240" />
              <mxPoint x="840" y="5330" />
            </Array>
          </mxGeometry>
        </mxCell>
        <mxCell id="P5KohYsV93h53xg6YDMX-173" value="" style="endArrow=none;html=1;rounded=0;" edge="1" parent="1">
          <mxGeometry width="50" height="50" relative="1" as="geometry">
            <mxPoint x="910" y="5130" as="sourcePoint" />
            <mxPoint x="860" y="5240" as="targetPoint" />
            <Array as="points">
              <mxPoint x="860" y="5130" />
            </Array>
          </mxGeometry>
        </mxCell>
        <mxCell id="P5KohYsV93h53xg6YDMX-174" value="" style="endArrow=classic;html=1;rounded=0;" edge="1" parent="1">
          <mxGeometry width="50" height="50" relative="1" as="geometry">
            <mxPoint x="1090" y="5130" as="sourcePoint" />
            <mxPoint x="1010" y="5130" as="targetPoint" />
          </mxGeometry>
        </mxCell>
        <mxCell id="P5KohYsV93h53xg6YDMX-175" value="" style="endArrow=classic;html=1;rounded=0;exitX=0;exitY=0.5;exitDx=0;exitDy=0;" edge="1" parent="1" source="P5KohYsV93h53xg6YDMX-133">
          <mxGeometry width="50" height="50" relative="1" as="geometry">
            <mxPoint x="1090" y="5250" as="sourcePoint" />
            <mxPoint x="1010" y="5245" as="targetPoint" />
          </mxGeometry>
        </mxCell>
        <mxCell id="P5KohYsV93h53xg6YDMX-177" value="" style="endArrow=classic;html=1;rounded=0;" edge="1" parent="1">
          <mxGeometry width="50" height="50" relative="1" as="geometry">
            <mxPoint x="1150" y="5272.5" as="sourcePoint" />
            <mxPoint x="1010" y="5470" as="targetPoint" />
            <Array as="points">
              <mxPoint x="1150" y="5320" />
              <mxPoint x="1060" y="5320" />
              <mxPoint x="1060" y="5470" />
            </Array>
          </mxGeometry>
        </mxCell>
        <mxCell id="P5KohYsV93h53xg6YDMX-178" value="" style="endArrow=none;html=1;rounded=0;" edge="1" parent="1">
          <mxGeometry width="50" height="50" relative="1" as="geometry">
            <mxPoint x="1210" y="5130" as="sourcePoint" />
            <mxPoint x="1060" y="5470" as="targetPoint" />
            <Array as="points">
              <mxPoint x="1240" y="5130" />
              <mxPoint x="1240" y="5470" />
            </Array>
          </mxGeometry>
        </mxCell>
      </root>
    </mxGraphModel>
  </diagram>
</mxfile>
